<?xml version="1.0" encoding="UTF-8"?><svg id="Calque_2" xmlns="http://www.w3.org/2000/svg" viewBox="0 0 372.1008 114.4051"><g id="Components"><g id="_08eed075-024d-4319-9066-59e1fb71f369_1"><path d="M371.8017,74.5c-.79,5.18-2.7,9.36-5.84,12.78-5.28,5.74-11.91,8.78-19.17,8.78-.71,0-1.43-.03-2.14-.09-5.43-.43-10.4-2.44-14.77-5.96-1.02-.82-1.91-1.6201-2.78-2.39-.8199-.73-1.6-1.42-2.31-1.98-.44-.34-.86-.6899-1.29-1.03-.8-.65-1.62-1.32-2.13-1.59-.59-.31-1.08-.47-1.42-.47-.09,0-.22,0-.43.06-1.04.3-2.17.98-3.67,2.21-1,.83-1.98,1.67-2.96,2.52-.87.74-1.67,1.43-2.48,2.11l-.33.28c-1.41,1.19-3.33,2.83-6.05,3.99-3.66,1.57-7.34,2.36-10.97,2.36-3.37,0-6.68-.68-9.86-2.03-.91-.39-1.78-.81-2.62-1.29-.66.42-1.35.81-2.09,1.17-.87.42-1.79.82-2.75,1.17-.84.3-1.67.56-2.47.76-1,.25-2.03.41-3.05.49-.6201.07-1.25.14-1.9.19-.76.07-1.66.11-2.55.11-.48,0-.94-.01-1.4-.03-.53-.03-1.06-.07-1.58-.13l-.36-.03-.28-.0099c-.61-.05-1.13-.11-1.63-.19-1.41-.14-2.8-.39-4.13-.77-1.38-.39-2.63-.83-3.81-1.35l-.44-.2c-.91-.45-1.84-.95-2.86-1.53-1.2-.7-2.28-1.44-3.33-2.3-.24-.18-.46-.36-.66-.53-5.23,4.65-12.56,7.42-20.5699,7.42-5.79,0-11.3701-1.46-16.11-4.21-1.14-.64-2.25-1.39-3.3-2.23-5.12,4.05-11.97,6.44-19.4,6.44-5.8,0-11.37-1.46-16.12-4.21-1.21-.68-2.38-1.47-3.47-2.36-5.11,4.02-11.94,6.38-19.34,6.38-5.21,0-10.25-1.18-14.66-3.43-.92.6-1.91,1.1-2.95,1.48-1.72.63-3.55.95-5.44.95h-24.79c-1.96,0-3.81-.28-5.51-.84-1.32-.43-2.56-1.04-3.69-1.82-2.46,1.17-4.99,1.89-7.34,2.23-1.23.18-2.46.2599-3.67.2599-1.86,0-3.7-.21-5.47-.62-2.76-.65-6-1.61-9.04-3.87-1.98-1.46-3.71-2.97-5.38-4.43l-.4-.35c-1.71-1.49-3.47-3.03-5.06-3.82-.89-.44-1.28-.46-1.35-.46-.74.05-1.38.3-1.99.76-2.48,1.87-4.61,3.63-6.52,5.38-4.14,3.8-8.92,6.17-14.2,7.06-1.43.24-2.87.36-4.28.36-3.1,0-6.08-.58-8.88-1.71C6.7817,90.06,1.0117,82.38.1016,72.32c-.44-4.85.55-9.56,2.94-13.98,3.09-5.71,6.19-11.41,9.29-17.11l3.3-6.09c2.35-4.33,4.71-8.66,7.08-12.99l.56-1.02c1.77-3.23,3.78-6.9,6.62-10.33C35.7517,3.73,43.3817,0,51.9517,0c.35,0,.71,0,1.07.01,2.56.09,4.71.44,6.78,1.09,4.23,1.33,7.94,3.65,11.35,7.09,2.85,2.88,4.94,6.01,6.78,8.76l.09.14c3.18,4.77,5.85,9.69,8.25,14.29,1.12,2.14,1.66,4.44,1.58,6.74,1.45.12,2.75.83,3.73,1.92.57-.33,1.13-.62,1.72-.88l.44-.19.44-.14c.67-.22,1.35-.4,2.08-.56,1.02-.21,2.06-.3199,3.09-.3199l24.58-.05c1.57,0,2.99.46,4.05,1.22-.08.03-.16.07-.25.11.29.11.58.23.86.37-.1801-.17-.38-.34-.6-.48.03-.02.06-.03.09-.04.87-.36,1.79-.65,2.81-.87l.27-.05c1.02-.18,2-.26,3.05-.26l3.31.29,1.07.32c.88.24,1.72.56,2.52.97.71.33,1.4.72,2.08,1.18.81.53,1.55,1.14,2.26,1.85.52.5,1.04,1.0699,1.54,1.71.5-.64,1.01-1.22,1.57-1.76.66-.66,1.42-1.28,2.27-1.86l.19-.13c.98-.62,1.87-1.09,2.77-1.44l.45-.17c.9-.31,1.67-.5,2.24-.63l.28-.05c1.03-.2,2.03-.28,3.05-.28,1,0,1.95.08,2.89.24l.19.03c1.21.24,2.22.56,3.19.99.19.08.38.16.57.25.11-.05.23-.09.34-.14.55-.23,1.12-.43,1.71-.59,1.37-.6,3.6-.85,6.07-.58,1.27.14,2.46.41,3.47.75.13.05.26.09.39.14h.01c.59.23,1.12.48,1.56.76.66.32,1.31.68,1.91,1.09l.14.1c.8.55,1.49,1.13,2.12,1.74.17.17.35.35.52.53.56.6,1.48.59,2.04,0,.18-.2.36-.38.55-.56.67-.67,1.43-1.29,2.28-1.87,1.06-.7,2.05-1.22,3.07-1.62l.25-.09c.8-.27,1.51-.47,2.32-.65l.42-.09c.95-.17,1.9-.25,2.91-.25.96,0,1.91.08,2.84.23l.24.05c1.18.23,2.18.54,3.12.96.13.05.25.1.37.16.16-.07.33-.14.5-.21.92-.38,1.86-.67,2.9-.88l.2-.04c.5099-.09,1-.16,1.5099-.19.3-.03.6-.05.91-.06.27-.01.55-.02.83-.02,2.08,0,3.96.35,5.28.91l.09.09c.22.09.45.1801.67.28.01.01.02.01.03.01.23.1.45.2.68.32.7.33,1.38.72,2.03,1.15l.14.1c.79.55,1.49,1.13,2.11,1.74.53.51,1.05,1.08,1.55,1.72.44-.57.94-1.13,1.48-1.66.69-.7,1.46-1.34,2.36-1.95,1.07-.71,2.06-1.23,3.08-1.63l.25-.09c.8-.27,1.5099-.47,2.32-.65l.3199-.07c1.05-.19,2-.27,3.01-.27.96,0,1.91.08,2.84.23l.24.05c1.18.23,2.18.54,3.12.96,1.1.43,2.11.99,3.09,1.69l.11.08c.76.58,1.37,1.1,1.92,1.63.44-.28.89-.53,1.34-.78,1.67-.88,3.39-1.62,5.15-2.19,1.69-.57,3.51-.99,5.39-1.26.7-.12,1.41-.19,2.09-.23l.52-.03c.32-.04.73-.07,1.13-.1l.63-.04c.48-.02.95-.03,1.45-.03,2.58,0,4.98.25,7.13.76,2.42.59,4.56,1.47,6.41,2.63.47-1.01,1.22-1.8701,2.22-2.45.58-.34,1.21-.55,1.85-.65-.02-2.05.42-4.11,1.32-6.03.84-1.79,1.76-3.44,2.58-4.9l.63-1.14c1.91-3.47,3.99-6.87,6.17-10.08,1.87-2.75,4.13-5.9301,7.27-8.78,3.16-2.89,6.79-4.93,10.7599-6.09,2.77-.81,5.3-.91,6.96-.91.53,0,1.06.01,1.58.03,4.41.14,8.62,1.37,12.53,3.65,4.19,2.45,7.7401,5.93,10.85,10.64,2.12,3.2,3.85,6.42,5.52,9.53.61,1.14,1.22,2.28,1.85,3.41,1.24,2.23,2.45,4.47,3.66,6.71l3.3,6.08,9.23,16.98c.94,1.71,2.1,3.84,2.83,6.54.93,3.39,1.12,6.93.58,10.51Z" style="fill:#db291c; stroke-width:0px;"/><path d="M61.6781,53.2042c.5791,1.6852,1.1295,3.2557,1.6585,4.8331.9347,2.7873,1.8632,5.5768,2.7763,8.371.1369.4189.1886.8619-.2509,1.199-.4738.3633-.8388.0819-1.1997-.1751-2.7842-1.9832-5.564-3.9724-8.3456-5.9593-1.1327-.8091-2.2983-1.5782-3.3865-2.4414-.5705-.4526-.9517-.3719-1.4936.0203-3.3325,2.4116-6.6885,4.7919-10.0365,7.1826-.6007.4289-1.1961.8651-1.8035,1.2846-.3431.237-.701.4041-1.0971.0674-.3753-.3191-.4029-.6738-.253-1.1243,1.5605-4.6888,3.1112-9.3807,4.6343-14.0813.0606-.1871-.1132-.5613-.2945-.6935-2.421-1.7645-4.8622-3.5024-7.2998-5.2448-1.5441-1.1037-3.0857-2.211-4.6395-3.3015-.429-.3011-.7723-.6248-.5878-1.1854.1739-.5283.6492-.5313,1.1046-.5314,4.8434-.0009,9.6869-.0078,14.5302.0086.584.002.8862-.1261,1.0809-.746.9058-2.8832,1.8847-5.7442,2.8376-8.6131.5578-1.6794,1.1249-3.3559,1.6683-5.0398.1527-.4732.3683-.8892.9152-.896.5687-.007.7684.4738.9163.9101.5219,1.5398,1.0176,3.0882,1.5251,4.6328,1.0087,3.0695,2.0211,6.1377,3.0249,9.2088.1259.3853.32.5499.7737.5481,5.1407-.0202,10.2816-.0118,15.4224-.0163,1.8418-.0016,3.1277-.8015,3.7598-2.4391.3828-.9916.2879-2.0226-.2065-2.968-2.3865-4.5633-4.8522-9.0848-7.7175-13.38-1.7219-2.5811-3.4374-5.1702-5.6454-7.3972-2.0628-2.0806-4.425-3.7019-7.2556-4.5938-1.3337-.4202-2.7104-.5819-4.1211-.6314-6.3263-.2221-11.1801,2.4653-15.0804,7.1728-2.4864,3.001-4.2611,6.422-6.1172,9.7945-3.0975,5.6284-6.1515,11.28-9.2188,16.9244-3.4766,6.3978-6.954,12.7951-10.418,19.1995-1.4063,2.5999-2.0457,5.3698-1.7788,8.3199.5833,6.4476,4.0379,10.813,10.0558,13.2528,2.4864,1.0081,5.1336,1.1917,7.7553.7522,3.4854-.5843,6.4772-2.1679,9.0909-4.5661,2.3067-2.1165,4.7505-4.1036,7.2553-5.9919,2.1136-1.5933,4.5684-2.557,7.2627-2.7478,2.3238-.1645,4.4846.4552,6.5455,1.4786,2.7032,1.3423,4.9465,3.2842,7.1883,5.24,1.6809,1.4666,3.3569,2.951,5.1501,4.277,1.5726,1.1629,3.4628,1.7208,5.3754,2.1686,1.8056.4228,3.6283.4577,5.4389.1974,4.5925-.6602,9.7103-3.6046,11.5198-9.1444,1.5877-4.861.2382-9.1266-3.1057-12.8578-2.845-3.1746-6.4794-5.2065-10.434-6.7357-3.3248-1.2857-6.7588-2.1829-10.292-2.6953-2.1404-.3104-4.2887-.5682-6.4344-.8429-.2041-.0261-.4147-.0035-.7529-.0035Z" style="fill:#004b87; stroke:#fff; stroke-miterlimit:10;"/><path d="M303.1279,41.9307c1.7193,0,3.4387.0087,5.1578-.0067.3846-.0034.6464.1148.8807.4194,1.0259,1.3338,2.0774,2.6486,3.1071,3.9797.2006.2593.4243.3489.7531.3424,2.0306-.0399,4.0629.0003,6.0916-.1192,1.0316-.0607,2.0265-.3037,2.967-.722.888-.395,1.3368-1.5137,1.1024-2.641-.152-.7312-.5427-1.3649-.8609-2.0266-1.5287-3.179-3.0591-6.3572-4.6119-9.5248-.2094-.4271-.0372-.4649.3182-.5323,1.1943-.2265,2.1018.1496,2.7707,1.1517.4758.7128,1.0047,1.391,1.4908,2.0974.2876.418.6383.6293,1.1733.5953.5878-.0373,1.1803-.0033,1.7708.0005.2648.0017.5171.0524.7478.188.2437.1433.3761.3418.3585.6321-.0184.3026-.1982.4751-.4719.5392-.3703.0867-.7478.1456-1.1241.2051-.3357.0531-.4171.1997-.2162.4817.5875.8245,1.176,1.6483,1.757,2.4772.1651.2356.3757.3265.6632.3118.5373-.0274,1.0757-.0347,1.6136-.051.3491-.0106.7015-.0132,1.0172.1537.2696.1425.4906.3457.446.6855-.0465.355-.2929.5343-.6327.5835-.3603.0521-.7235.0889-1.0868.1157-.3734.0276-.4119.1767-.201.4509.6908.8981,1.379,1.7983,2.0682,2.6976.3027.395.6135.7843.9052,1.1871.2202.304.4907.4283.8803.4265,1.9791-.0093,3.9578.0322,5.9302.2077.6563.0584,1.3133.1376,1.9397.3605.726.2583,1.0046.5807,1.0013,1.1486-.0032.5378-.3293.9478-.993,1.1758-.8591.2951-1.7584.4067-2.6609.4484-1.7857.0826-3.5725.1449-5.3595.1935-.3627.0099-.6104.1145-.8332.4041-.9627,1.2516-1.9419,2.4911-2.9275,3.7254-.2348.2941-.1723.4108.1842.4468.276.0279.552.0606.8258.1047.5152.0831.8493.4575.817.9016-.0297.4074-.3394.6652-.8845.6898-.5897.0266-1.1827.0308-1.7664-.0735-.5111-.0913-.8867.013-1.1846.4888-.4907.7837-1.0425,1.5309-1.5805,2.2853-.206.2888-.1141.3869.2058.4077.2768.018.5543.0428.8281.0857.4184.0655.7258.4266.6857.8217-.0442.4361-.3055.6822-.7557.6926-.6944.0161-1.3892.0218-2.0839.0197-.3023-.0009-.5186.1016-.7043.3482-.5782.768-1.218,1.4937-1.7608,2.2843-.7683,1.1191-1.8635,1.2557-3.0774,1.1173-.3437-.0392-.1893-.2464-.1102-.411.623-1.2964,1.2677-2.5831,1.8675-3.8898,1.0355-2.2557,2.1163-4.4967,2.7911-6.8919.2307-.8191.4315-1.6555.2819-2.5242-.1767-1.0262-.5963-1.4546-1.6526-1.6196-1.2399-.1937-2.4934-.1403-3.7416-.1523-1.354-.013-2.7085.0295-4.0626.0215-.4079-.0024-.6746.1449-.9229.4539-1.0647,1.3252-2.15,2.6344-3.1545,4.0052-.1738.2372-.3796.3646-.6821.4035-2.1505.2766-4.3065.5088-6.445.8796-4.4605.7734-8.7335,2.0993-12.7593,4.1474-3.2566,1.6567-6.0654,3.8594-8.1541,6.8552-2.5449,3.6504-3.0878,7.5763-1.4882,11.7422,1.3801,3.5942,3.9976,6.0062,7.5359,7.5082,4.3742,1.8568,8.7093,1.5163,12.9849-.3154,1.4795-.6338,2.6717-1.7117,3.8851-2.7322,1.8466-1.553,3.6492-3.1571,5.512-4.6908,2.1835-1.7978,4.533-3.3318,7.3141-4.1161,3.261-.9196,6.324-.3519,9.2484,1.1973,1.8017.9544,3.2954,2.3271,4.8849,3.5668,1.8098,1.4115,3.4368,3.0335,5.2198,4.4727,2.6959,2.176,5.7821,3.5018,9.2871,3.7804,5.3535.4256,9.6545-1.6866,13.1499-5.4922,1.9326-2.104,2.8894-4.7059,3.314-7.5075.3275-2.1614.2378-4.2903-.3344-6.3958-.4521-1.6636-1.2992-3.1604-2.1187-4.6661-1.491-2.7393-2.9836-5.4778-4.4735-8.2178-2.1039-3.8693-4.2058-7.7396-6.3086-11.6095-1.7346-3.1923-3.4447-6.3977-5.2102-9.5734-2.2896-4.1184-4.373-8.3519-6.9767-12.2962-1.9867-3.0096-4.3708-5.6574-7.5463-7.512-2.3996-1.4015-5.001-2.2011-7.8028-2.2895-1.8248-.0576-3.6456-.0396-5.4232.4791-2.597.7579-4.85,2.0797-6.8348,3.886-2.2639,2.0604-4.025,4.5089-5.7237,7.0107-2.0454,3.0125-3.9388,6.1156-5.6935,9.2996-.9927,1.8012-2.0346,3.5827-2.9054,5.4405-1.1224,2.3947.3813,5.2605,3.3574,5.3524,1.7351.0536,3.4734.0098,5.2102.0098,0,.0026,0,.0053,0,.0079Z" style="fill:#004b87; stroke:#fff; stroke-miterlimit:10;"/><path d="M101.0683,85.7337h-1.9314c-.8936,0-1.686-.1122-2.3837-.3411-.6955-.2289-1.3118-.6053-1.8466-1.1336-.5348-.4907-.9376-1.052-1.204-1.6838-.2685-.6316-.4028-1.3162-.4028-2.0535v-.1585c0-.033.0176-.0704.055-.1056v-.4732c0-.0705.0066-.1409.0264-.2113.0176-.0682.044-.1387.0792-.2091v-.0528c.0726-.1761.1343-.3698.1871-.5789.055-.2113.1167-.405.1893-.5788.0704-.176.1607-.3434.2663-.5018.1078-.1585.2157-.306.3214-.4469l15.154-18.9023h-10.2281c-.3566.0352-.7131.0176-1.0697-.0528-.3588-.0704-.6977-.1739-1.0191-.3147-.3566-.1409-.6779-.3082-.9618-.5019-.2861-.1915-.5546-.4116-.8034-.658-.2509-.2795-.4732-.5613-.6691-.8408-.1981-.2817-.3676-.5789-.5084-.8958-.1431-.3147-.2421-.6317-.2949-.9486-.055-.3147-.0814-.6471-.0814-.9993,0-.3499.0352-.6933.1078-1.0279.0704-.3324.1783-.6581.3214-.9728.1409-.3169.3213-.6229.5348-.9222.2135-.2972.4468-.5701.6955-.8144.2509-.2465.5172-.4578.8034-.6339.2861-.1739.5899-.3324.9112-.4732.3214-.1056.6515-.1915.9905-.262.339-.0704.6867-.1056,1.0433-.1056l22.2214-.0528s.1659-.0002.2614-.0005c.5461.1059,1.0218.2117,1.0218.2117.7153.1387,1.3404.3852,1.8753.7352.5349.3521.9993.7726,1.3911,1.2634.394.5282.6867,1.0543.8848,1.5803.1959.5261.2949,1.0895.2949,1.686v.2619c-.0374.0704-.055.1233-.055.1585v.3676c-.0352.0727-.0528.1255-.0528.1585v.1056c-.0352.1056-.0638.2025-.0814.2905-.0176.0881-.044.1651-.0793.2355-.0352.1056-.0726.2025-.1078.2905-.0352.088-.0704.1673-.1056.2355-.0726.1409-.1541.273-.2421.3962-.0902.1233-.1695.2377-.2399.3412-.0374.0353-.0727.088-.1078.1585-.0352.0704-.0727.1233-.1078.1585-.0704.0704-.1255.1321-.1607.1849-.0352.0528-.0704.1145-.1056.1826l-14.9933,18.4291h13.118c.7153.0353,1.3844.185,2.0095.4469.6229.2641,1.204.6404,1.7388,1.1314.4996.5282.8848,1.0982,1.1511,1.7123.2685.6141.4028,1.2898.4028,2.0271s-.1343,1.413-.4028,2.0271c-.2663.6141-.6691,1.1666-1.2039,1.6573-.5349.5283-1.1159.9047-1.741,1.1336-.6251.2289-1.2942.3411-2.0073.3411h-22.8587Z" style="fill:#004b87; stroke:#fff; stroke-miterlimit:10;"/><path d="M166.0246,54.1044v15.1182c0,2.3907-.3316,4.5326-.9949,6.4535-.0691.2073-.152.4146-.2349.608-2.1144,6.0666-9.2865,10.5302-17.8129,10.5302-4.1596,0-8.0013-1.0641-11.0968-2.8606-1.1331-.6357-2.1558-1.3819-3.0402-2.2387-1.2438-1.147-2.2664-2.446-2.9988-3.8555-.1382-.2626-.2626-.5251-.3869-.8015-.1106-.2764-.2212-.5528-.3179-.8291-.0691-.1797-.1382-.3731-.2072-.5528-.6495-1.9209-.9812-4.049-.9812-6.3983v-15.2149c0-.1935.0138-.3869.0277-.5942h.0138v-.0691c.0138-.152.0276-.3178.0691-.4699.0691-.4007.1658-.8015.3178-1.1884.1797-.3869.3731-.7462.5805-1.0779.2211-.3317.4698-.6495.76-.9259.2764-.3178.608-.5804.9535-.8153.3593-.2212.7324-.4146,1.1332-.5528.3869-.1797.7876-.2902,1.1746-.3731.387-.0691.8015-.0967,1.2299-.0967h.4284c.0414.0276.0691.0552.0829.0552h.0829c.3178.0277.6357.0829.9674.152.3178.0691.6356.1935.9535.3731.3316.1382.6218.304.912.4975s.5528.4146.8015.6633c.2901.2764.5527.5805.8015.9121.2487.3316.456.691.5942,1.0779.1797.387.304.7877.3731,1.1885.0692.4007.1106.8015.1106,1.1884v15.588c0,.1521,0,.3041.0138.4561v.0552c0,.995.2349,1.9347.6495,2.7638.2073.4284.4422.8292.7325,1.1885.2626.304.5527.5665.8568.8153,1.1746,1.0089,2.7223,1.6169,4.4222,1.6169,3.6759,0,6.6609-2.8606,6.6609-6.3845,0-.0829-.0138-.1658-.0138-.2626,0-.0691.0138-.1382.0138-.2072v-15.6848c0-.3455.0414-.7324.1243-1.1331.0967-.4008.2073-.8015.3455-1.1885.1797-.3869.387-.7462.6219-1.0779s.4836-.6357.7739-.9121c.2902-.2901.5942-.5389.9397-.7739.3455-.2211.691-.4146,1.0364-.5527.4008-.1382.7877-.235,1.1608-.3179.3731-.0691.76-.0967,1.1469-.0967.4008,0,.8015.0276,1.2023.0967.4146.0829.8015.1935,1.1608.3731.387.1382.7462.3316,1.0917.5804.3455.2488.6495.5113.9398.7877.2901.2764.5389.5942.7739.9259.2349.3316.4146.691.5665,1.0779.1797.387.3041.7877.3731,1.1884.0691.4008.1105.8015.1105,1.1747Z" style="fill:#004b87; stroke:#fff; stroke-miterlimit:10;"/><path d="M204.9338,54.291v15.1182c0,2.3907-.3316,4.5326-.9811,6.4535-.0829.2073-.1521.4146-.235.608-2.1281,6.0666-9.3003,10.5302-17.8129,10.5302-4.1596,0-8.0014-1.0641-11.0968-2.8606-1.1332-.6357-2.1558-1.3819-3.0541-2.2387-1.7136-1.5754-2.9849-3.441-3.6897-5.4862-.0691-.1797-.1382-.3731-.2072-.5528-.6634-1.9209-.995-4.049-.995-6.3983v-15.2149c0-.3593.0415-.7324.1106-1.1332.0691-.4007.1797-.8015.3316-1.1884.1658-.3869.3731-.7462.5804-1.0779.2212-.3317.4699-.6495.7463-.9259.2901-.3178.608-.5804.9673-.8153.3593-.2212.7325-.4146,1.1332-.5528.387-.1797.7739-.2902,1.1747-.3731.3869-.0691.8015-.0967,1.2298-.0967h.4284c.0277.0276.0553.0552.0829.0552h.0692c.3316.0277.6495.0829.9673.152.3179.0691.6495.1935.9674.3731.3179.1382.6219.304.9121.4975.2764.1935.5527.4146.8015.6633.2902.2764.5528.5805.8015.9121s.4422.691.5942,1.0779c.1797.387.3041.7877.3731,1.1885.0691.4007.1106.8015.1106,1.1884v15.588c0,.1521,0,.3041.0138.4561v.0552c0,.995.2349,1.9347.6495,2.7638.1935.4284.4422.8292.7186,1.1885.2626.304.5527.5665.8568.8153,1.1746,1.0089,2.7362,1.6169,4.4222,1.6169,3.6897,0,6.6608-2.8606,6.6608-6.3845v-16.1546c0-.3455.0415-.7324.1382-1.1331.0829-.4008.2072-.8015.3455-1.1885.1797-.3869.3869-.7462.6219-1.0779.2349-.3316.4836-.6357.7739-.9121.2901-.2901.5942-.5389.9397-.7739.3316-.2211.6771-.4146,1.0364-.5527.4007-.1382.7739-.235,1.147-.3179.3869-.0691.76-.0967,1.1608-.0967.387,0,.7877.0276,1.2023.0967.4146.0829.7877.1935,1.147.3731.4007.1382.76.3316,1.1055.5804.3316.2488.6495.5113.9397.7877.2764.2764.539.5942.7739.9259.2212.3316.4146.691.5528,1.0779.1797.387.304.7877.3869,1.1884.0692.4008.0967.8015.0967,1.1747Z" style="fill:#004b87; stroke:#fff; stroke-miterlimit:10;"/><path d="M243.7519,54.291v15.1182c0,2.3907-.3316,4.5326-.9812,6.4535-.0829.2073-.152.4146-.2349.608-2.1281,6.0666-9.3003,10.5302-17.8129,10.5302-4.1734,0-8.0013-1.0641-11.0968-2.8606-1.1332-.6357-2.1558-1.3819-3.0541-2.2387-1.7136-1.5754-2.9849-3.441-3.6897-5.4862-.0692-.1797-.1382-.3731-.2073-.5528-.6633-1.9209-.9949-4.049-.9949-6.3983v-15.2149c0-.3593.0414-.7324.1105-1.1332.0692-.4007.1797-.8015.3179-1.1884.1797-.3869.3869-.7462.5942-1.0779.2211-.3317.4698-.6495.7462-.9259.2902-.3178.608-.5804.9674-.8153.3593-.2212.7324-.4146,1.1193-.5528.4007-.1797.7877-.2902,1.1884-.3731.387-.0691.8015-.0967,1.2299-.0967h.4284c.0277.0276.0552.0552.0829.0552h.0691c.3316.0277.6495.0829.9674.152s.6495.1935.9674.3731c.3178.1382.6219.304.912.4975.2764.1935.5528.4146.8015.6633.2902.2764.5528.5805.8015.9121s.4422.691.5942,1.0779c.1797.387.2901.7877.3731,1.1885.0691.4007.1105.8015.1105,1.1884v15.588c0,.1521,0,.3041.0138.4561,0,.0138-.0138.0415-.0138.0552,0,.995.2487,1.9347.6634,2.7638.1934.4284.4284.8292.7185,1.1885.2626.304.5528.5665.8568.8153,1.1747,1.0089,2.7224,1.6169,4.4222,1.6169,3.6759,0,6.6609-2.8606,6.6609-6.3845v-16.1546c0-.3455.0415-.7324.1382-1.1331.0829-.4008.2073-.8015.3455-1.1885.1797-.3869.387-.7462.6219-1.0779.2212-.3316.4837-.6357.7739-.9121.2764-.2901.5942-.5389.9397-.7739.3317-.2211.6772-.4146,1.0364-.5527.4008-.1382.7739-.235,1.147-.3179.387-.0691.76-.0967,1.1608-.0967.3869,0,.7877.0276,1.2023.0967.4146.0829.7877.1935,1.1469.3731.4008.1382.7601.3316,1.1056.5804.3316.2488.6495.5113.9259.7877.2902.2764.5528.5942.7877.9259.2211.3316.4146.691.5527,1.0779.1797.387.3041.7877.387,1.1884.0691.4008.0967.8015.0967,1.1747Z" style="fill:#004b87; stroke:#fff; stroke-miterlimit:10;"/><path d="M278.6177,78.972c0,.1382-.0138.2764-.0277.4146-.0276.1382-.0276.2626-.0276.3731-.0415.1382-.0691.2764-.1106.4146-.0414.152-.0691.2902-.1106.4284-.0276.1382-.0829.2764-.152.4146-.0829.1521-.152.2626-.2211.3731-.0692.1382-.1382.2764-.2212.4284-.0691.1382-.152.2764-.2626.4146-.2072.3179-.4836.6357-.8015.9535-.3179.3041-.691.608-1.1194.8844-.4284.3178-.912.608-1.451.8706-.5389.2626-1.1469.5251-1.8241.7739-.456.1658-.9397.3178-1.4372.4422-.4975.1243-1.0226.2072-1.5616.2349-.5665.0691-1.147.1382-1.7412.1797-.5804.0552-1.1746.0829-1.7826.0829-.3316,0-.6495-.0138-.9674-.0277s-.6495-.0414-.9674-.0829c-.3178-.0276-.6495-.0552-.9811-.0691-.3455-.0277-.691-.0691-1.0503-.1382-.9259-.0692-1.8241-.2212-2.7086-.4699-.8706-.2487-1.7136-.539-2.5427-.8982-.7877-.387-1.5477-.8015-2.294-1.2299-.76-.4422-1.4648-.9397-2.142-1.5063-.2902-.2072-.5665-.4422-.8291-.6771-.2764-.2487-.5251-.4975-.7877-.7462-.2487-.2764-.4976-.5528-.7463-.8154s-.4836-.539-.691-.8153v-.0553c-.4698-.5527-.8844-1.1332-1.2575-1.7412-.3731-.5942-.7325-1.2023-1.0503-1.8379-.3178-.6357-.608-1.2714-.8568-1.9209-.2487-.6495-.4561-1.299-.6357-1.9761-.1105-.387-.1934-.76-.2487-1.1332-.0552-.3593-.1105-.7186-.1797-1.0779-.0414-.3869-.0829-.76-.1105-1.1332-.0415-.3592-.0553-.7185-.0553-1.0779v-.8154c0-.2626.0138-.5113.0553-.76.0276-.2764.0829-.5527.1382-.8153.0415-.2626.0967-.539.1244-.8154.1796-.7462.4007-1.4787.6495-2.211.2487-.7463.5528-1.4787.912-2.2111.3455-.7462.7463-1.451,1.2023-2.142.4421-.6771.9397-1.3543,1.4648-2.0176.8291-.9535,1.7136-1.8241,2.6533-2.6118.9535-.7877,1.9761-1.4787,3.0816-2.0729,1.147-.608,2.3216-1.1056,3.5377-1.5063,1.2023-.4007,2.4737-.691,3.8003-.8706.387-.0691.76-.1106,1.1193-.1243.3593-.0277.7186-.0415,1.0779-.0829.3455-.0415.7048-.0553,1.0364-.0829.3455-.0138.691-.0277,1.0503-.0277,1.8103,0,3.4271.1658,4.8367.4975,1.4095.3455,2.6256.8429,3.6206,1.5063.9674.6633,1.7412,1.3543,2.3216,2.059.5942.7048.9674,1.451,1.1055,2.2525v.1105c0,.0415.0138.0692.0552.1106v.3731c0,.0277.0138.0691.0553.0967v.2072c0,.3179-.0277.608-.0829.8706-.0553.2626-.1244.539-.1935.8154-.0967.2487-.2211.4975-.3455.7462-.1244.2349-.2764.4699-.4561.6771-.0414.0415-.0691.0692-.1105.1106-.0277.0277-.0553.0552-.0692.0691-.0276.0277-.0276.0553-.0276.0829-.0415.0415-.0829.0692-.1106.1106-.0415.0277-.0552.0691-.0552.0967-.1382.152-.2764.2626-.4008.3731-.1243.1105-.2349.2072-.3455.3178-.152.1106-.2764.1935-.4007.2626-.1244.0691-.2626.1382-.4008.2072-.2487.1106-.5527.1935-.912.235-.3593.0552-.7324.0829-1.1193.0829h-.8154c-.1382,0-.2901-.0138-.456-.0277-.1521-.0138-.3179-.0414-.4976-.0829h-.1658v-.0414h-.2487c-.0138,0-.0138-.0277-.0138-.0553-.1796,0-.3869-.0276-.5942-.0829-.2211-.0552-.4284-.1106-.6356-.1797-.2212-.0691-.4976-.1658-.843-.2901-.3316-.1244-.7462-.2764-1.2575-.4561-.1382-.0277-.2902-.0691-.4561-.0967-.152-.0415-.3455-.0691-.5527-.1106-.2212-.0276-.4699-.0552-.7739-.0691-.3041-.0277-.6634-.0277-1.0503-.0277h-.2626c-1.0088,0-1.9209.1382-2.7638.4422-.8429.3041-1.6168.7463-2.3216,1.3405-.7186.5665-1.3128,1.2713-1.7965,2.1143-.4837.843-.8569,1.7965-1.1056,2.8882,0,.0691,0,.1382-.0276.2072-.0138.0692-.0277.1382-.0277.2212-.0277.0967-.0415.1935-.0415.2626v.2072c-.0414.1382-.0552.2764-.0552.4146v.8153c0,.1244.0138.2626.0552.4008,0,.1382,0,.2763.0277.4146.0138.152.0415.2901.0691.4284.2212,1.0917.539,2.0452.9397,2.8606.4146.8291.9398,1.5477,1.5754,2.142.6495.5665,1.3958.9812,2.2249,1.2575.843.2902,1.7966.4284,2.8744.4284.4146,0,.8706-.0276,1.3543-.0829.4837-.0552.9812-.1243,1.4787-.2349.4976-.1106,1.0364-.2349,1.6031-.3731.5665-.1382,1.147-.3178,1.7136-.5251.0414,0,.0691-.0137.1106-.0552h.0552c.0277,0,.0691-.0138.0967-.0414h.1658l.0552-.0553h.0553c.0691,0,.152-.0138.2349-.0276.0967-.0138.1935-.0415.304-.083.0692,0,.1521-.0137.235-.0276.0967-.0138.1658-.0277.2349-.0277h.2487c.0829,0,.1658-.0138.2349-.0552h.4837c.4284,0,.8429.0414,1.2299.1105.4007.0692.7739.1797,1.1331.3179.3179.1382.6219.304.9121.4975.2764.1935.5528.4284.8015.7186.2072.2349.4007.4975.5527.76.1658.2626.3041.539.4008.8153.1105.2488.2072.5114.2763.8154.0692.3041.1106.5804.1106.8706Z" style="fill:#004b87; stroke:#fff; stroke-miterlimit:10;"/><path d="M154.1437,114.1284c-.1592,0-.3174-.0059-.4766-.0166l-.125-.0107c-.9512-.0898-1.8828-.417-2.6943-.9443-.4287-.2773-.8379-.6084-1.2021-.9766-.3926-.3877-.7305-.8438-1.001-1.3437-.7686-.5576-1.3955-1.3311-1.7852-2.2363-.4854-1.1426-.5576-2.3877-.2354-3.5342.0098-.168.0273-.3369.0527-.5068l.1123-.749.1387-.2871c.0059-.0205.0117-.04.0176-.0605.1318-.583.2158-1.1777.251-1.7715.0127-.2266.0205-.4541.0234-.6826-.6729-.1982-1.3076-.5078-1.8818-.9219-.9746-.7021-1.7285-1.6504-2.1807-2.7432-.4473-1.0908-.585-2.2754-.4053-3.4404.208-1.3555.8516-2.583,1.8623-3.5547.8594-.8379,1.9102-1.4053,3.0508-1.6582.9668-.9453,2.3105-1.4932,3.7246-1.4932l7.9951.1982.0947.0488h.4297l.4531.0703c1.876.3154,3.3379,1.5205,4.0234,3.165.8252.9189,1.3564,2.0332,1.543,3.2441.1895,1.2314.0225,2.4697-.4824,3.582-.4688,1.0303-1.2051,1.9219-2.1338,2.5869-.666.4805-1.418.8203-2.2197,1.0078-.001.0176-.002.0352-.002.0527-.0312.7383-.0674,1.4443-.1113,2.1494-.0459.7402-.1084,1.4795-.1846,2.2187l-.0186.1611c-.0068.0654-.1465,2.0859-.1465,2.0859-.0342.4629-.0674.7617-.0879.9141-.1953,1.498-.9775,2.9199-2.1973,3.957l-.1221.1006c-.6973.5557-1.501.9521-2.3906,1.1777-.5693.1416-1.1299.2109-1.6885.2109Z" style="fill:#db291c; stroke-width:0px;"/><path d="M154.939,108.2595c-.1396.1113-.3076.1914-.5039.2412-.1963.0488-.3916.0664-.5879.0527-.1543-.0146-.3008-.0674-.4404-.1582-.1406-.0908-.2666-.1924-.3779-.3047-.1123-.1113-.1895-.2441-.2314-.3984s-.0703-.3076-.084-.4619c-.0137-.042-.0107-.1367.0107-.2832.0205-.1475.0312-.2344.0312-.2627.042-.7139.0947-1.4141.1572-2.1006.0635-.6855.123-1.3857.1787-2.0996.084-1.1343.1289-2.2646.1367-3.3916.0068-1.127.0029-2.2573-.0107-3.3916h-4.3262c-.3076,0-.5742-.0801-.7979-.2412s-.3848-.3604-.4834-.5986c-.0977-.2378-.126-.4937-.084-.7666s.1758-.5146.3994-.7246c.2656-.2656.5811-.3989.9453-.3989h10.5625c.3643,0,.7002.1401,1.0078.4199.21.21.3369.4517.3789.7246s.0098.5249-.0947.7559c-.1055.231-.2695.4272-.4941.5884-.2236.1611-.4902.2412-.7979.2412h-3.4854c.0137.7983.0205,1.5825.0205,2.3521,0,.77-.0137,1.5542-.042,2.3521-.0283.6719-.0625,1.3442-.1045,2.0156-.042.6729-.0986,1.3447-.168,2.0166-.0146.0977-.0322.29-.0527.5771-.0215.2871-.042.5918-.0635.9141-.0205.3223-.042.626-.0625.9131-.0215.2871-.0391.4795-.0527.5771-.042.3223-.2031.6025-.4834.8408ZM158.2789,91.8162c.0977.0142.168.0562.21.126.042.0703.0557.1401.042.21-.0146.0703-.0459.1362-.0947.1992-.0498.063-.123.0947-.2207.0947-1.1758-.0278-2.3418-.0596-3.4961-.0947-1.1553-.0347-2.3213-.0659-3.4971-.0942-.1123,0-.1963-.0317-.252-.0947s-.084-.1362-.084-.2202.0283-.1577.084-.2207.1396-.0942.252-.0942l6.7197.168c.0283.0142.084.021.168.021h.1689ZM151.8941,105.8025c.042.0977.0391.1855-.0098.2617-.0498.0771-.1123.1338-.1895.168-.0771.0352-.1543.0391-.2314.0107-.0762-.0273-.1357-.0908-.1777-.1885-.042-.0986-.0391-.1855.0098-.2627.0498-.0771.1123-.1328.1895-.168s.1543-.0391.2314-.0107c.0762.0283.1357.0908.1777.1895ZM152.0621,104.8992c-.042.084-.0977.1436-.168.1787s-.1396.042-.21.0205c-.0703-.0205-.1289-.0625-.1787-.126-.0488-.0625-.0664-.1436-.0518-.2412.0137-.0283.0381-.1123.0732-.252s.0596-.2236.0732-.252c.2236-.9238.3643-1.8623.4199-2.8145.0557-.9517.042-1.9038-.042-2.856,0-.0557-.0068-.1396-.0205-.252-.0146-.1118-.0312-.231-.0527-.3569-.0205-.126-.042-.2446-.0625-.3569-.0215-.1118-.0459-.189-.0742-.231-.042-.084-.0518-.1646-.0312-.2417.0215-.0767.0596-.1362.1152-.1782s.123-.0596.2002-.0527c.0762.0073.1494.0459.2197.1157.0566.0562.0908.1191.1055.189.126.4761.2061.9624.2412,1.4595s.0527.9907.0527,1.4805c0,.5742-.0176,1.1445-.0527,1.7114-.0352.5674-.1084,1.1309-.2207,1.6904-.0137.0566-.0352.1475-.0625.2734-.0283.126-.0596.2617-.0947.4092s-.0703.2871-.1045.4199c-.0352.1328-.0605.2207-.0742.2627ZM159.6431,92.2781c0,.1123-.0381.1855-.1152.2207-.0771.0347-.1611.0454-.252.0312-.0908-.0137-.168-.0527-.2314-.1157-.0625-.063-.0732-.1431-.0312-.2412.084-.2236.21-.3218.3779-.2939.168.0283.252.1611.252.3989Z" style="fill:#fff; stroke-width:0px;"/><path d="M170.2437,114.4051c-1.0986,0-2.1562-.3311-3.0576-.957-.3623-.252-.6836-.543-.9629-.8662-.5166.3379-1.082.5928-1.6768.7539-.4229.1152-.8594.1953-1.2988.2373-.1699.0176-.374.0273-.5771.0273-1.293,0-2.5498-.417-3.6328-1.207-1.0723-.7812-1.8623-1.8252-2.2832-3.0186-.2354-.6367-.3682-1.3682-.3682-2.1025,0-.2578.0107-.5283.0342-.8105l.123-1.9365c.0391-.6152.0723-1.2393.0996-1.874l.0068-.1367c.0117-.1592.0215-.417.0332-.7734.0127-.4023.0225-.8789.0283-1.417.0078-.5889.0186-1.2051.0322-1.8447.0127-.585.0205-1.1475.0205-1.6865v-1.5225c0-.25-.001-.4395-.0078-.5713-.0938-1.1221.1289-2.2344.6523-3.2578.1221-.8369.4443-1.6348.9482-2.3398.832-1.165,2.0703-1.9268,3.4951-2.1523.0957-.0205.4707-.0967.4707-.0967.1533-.0342.3564-.0762.5986-.1074.5703-.0898,1.1543-.1602,1.7393-.209.5869-.0479,1.1797-.0801,1.7764-.0957h.0078c.2197-.0137.373-.0176.5273-.0176.1572,0,.3145.0049.4717.0137l.332.0205c.2471.0156.5811.0449.9648.1279h.0586c1.2021,0,2.3857.4131,3.334,1.1641.5225.4199.9492.917,1.2705,1.4639.5391.3164,1.0479.6758,1.5205,1.0762.8379.6904,1.5645,1.5137,2.1602,2.4453.6348.9912,1.085,2.0664,1.3379,3.1934.1279.5332.2148,1.1484.2432,1.7627.0254.5166.0127,1.0596-.0371,1.5977l-.0117.1143c-.0791.6904-.2314,1.3857-.4531,2.0664-.1729.5283-.3711,1.0449-.5908,1.543-.0869.1895-.1787.374-.2744.5537.0117.0186.0244.0371.0371.0547.6553.9375,1.0254,2.041,1.0693,3.1973.0254.7529-.0645,1.4775-.2666,2.1768-.292,1.0293-.8672,1.9834-1.6572,2.7373-.5381.5088-1.1348.918-1.7852,1.2266-.4219.2031-.8691.3545-1.3281.4512-.8096.5742-1.7314.9063-2.7129.9805l-.1875.0137-.2236.002Z" style="fill:#db291c; stroke-width:0px;"/><path d="M163.6334,108.28c-.1123.1123-.2451.1895-.3994.2314s-.3086.0693-.4619.084c-.2666.0273-.5283-.0527-.7881-.2422-.2588-.1885-.4297-.4023-.5137-.6406-.0566-.1533-.084-.3008-.084-.4404s.0068-.2871.0205-.4414c.042-.6719.084-1.333.126-1.9844.042-.6514.0771-1.3125.1055-1.9844.0137-.1963.0273-.5146.042-.9551.0137-.4414.0244-.9487.0313-1.5229.0068-.5737.0176-1.1724.0312-1.7954s.0215-1.2212.0215-1.7954v-1.5225c0-.4414-.0078-.7593-.0215-.9556-.0283-.2383.0352-.4795.1895-.7246.1533-.2446.3496-.4233.5879-.5356.0557-.0278.1572-.0591.3047-.0942.1465-.0352.3037-.0737.4717-.1157.1689-.042.3262-.0767.4727-.105.1475-.0278.2559-.0488.3262-.063.6719-.0977,1.3398-.1538,2.0049-.168.665-.0137,1.334.021,2.0059.105.6582.084,1.3018.252,1.9316.5039.6299.252,1.1904.5879,1.6807,1.0083.4473.3643.832.7979,1.1543,1.3018s.5459,1.0361.6719,1.5962c.0703.2939.1123.5913.126.8926.0146.3008.0078.6055-.0205.9131-.042.3643-.123.7285-.2412,1.0923-.1191.3643-.2559.7212-.4102,1.0708-.2383.5181-.5771.9873-1.0186,1.4072-.4404.4199-.9199.7559-1.4385,1.0078.5322.4062,1.0156.875,1.4492,1.4072s.8467,1.085,1.2393,1.6592c.1113.1543.1709.332.1787.5352.0068.2031-.0176.4023-.0742.5986-.0557.1963-.1572.3643-.3037.5039-.1475.1396-.3125.252-.4941.3359-.1396.0703-.29.0977-.4512.084s-.3184-.042-.4727-.084-.2939-.1191-.4199-.2314c-.126-.1113-.2314-.2373-.3154-.3779-.2939-.4199-.6055-.8252-.9336-1.2178-.3291-.3916-.6973-.749-1.1025-1.0713-.3086-.252-.6445-.4648-1.0088-.6396-.3643-.1748-.7344-.3262-1.1123-.4521-.042-.0137-.123-.0342-.2422-.0625s-.2412-.0527-.3672-.0732c-.126-.0215-.2451-.043-.3574-.0635-.1113-.0215-.1885-.0312-.2305-.0312h-.6094c-.21,0-.4131-.0068-.6084-.0215,0,.1123-.0107.3223-.0322.6299-.0205.3086-.0449.6406-.0732.998-.0283.3564-.0527.6924-.0732,1.0078-.0215.3154-.0312.5215-.0312.6191-.0283.1543-.084.3018-.168.4414s-.1826.2656-.2939.3779ZM163.6959,92.2991c-.042,0-.1123.0142-.21.042-.0977.0283-.1992.0522-.3047.0732-.1045.021-.2061.042-.3047.063-.0977.0215-.168.0317-.21.0317-.0977,0-.1748-.0317-.2305-.0947-.0566-.063-.084-.1289-.084-.1992,0-.0698.0244-.1387.0732-.207s.1221-.1089.2207-.1226c.0273,0,.0869-.0103.1787-.0308.0908-.0205.1885-.0405.2939-.061.1045-.0205.2021-.0405.2939-.061.0908-.0205.1504-.0303.1787-.0303.4893-.0811.9834-.1421,1.4805-.1831.4961-.0405.9971-.0674,1.501-.0811.042,0,.1191-.0034.2314-.0107.1113-.0068.2236-.0068.3359,0,.1113.0073.2236.0142.3359.0205.1113.0073.1885.0171.2305.0308.084.0273.1396.0747.168.1426.0283.0674.0352.1353.0215.2031-.0146.0674-.0459.125-.0947.1724s-.1152.0713-.1992.0713c-.6582-.0269-1.3125-.0195-1.9639.0215-.6504.042-1.2988.1118-1.9424.2095ZM164.4097,101.4128c.5459.042,1.0986.0737,1.6592.0947.5596.021,1.1055-.0107,1.6377-.0947.3643-.0557.7178-.1362,1.0605-.2412s.6621-.2554.9561-.4517c.1533-.0977.2939-.2202.4199-.3677.126-.147.2373-.2969.3359-.4512.1533-.2798.2725-.5913.3564-.9346.084-.3428.1123-.6753.084-.9976-.042-.4199-.1885-.8115-.4404-1.1758-.1543-.2241-.333-.4204-.5352-.5884-.2031-.168-.4238-.3149-.6621-.4409-.252-.126-.5146-.2202-.7871-.2832-.2734-.063-.5498-.1157-.8301-.1577-.5322-.084-1.0635-.1118-1.5957-.084-.5322.0283-1.0645.0771-1.5957.147.0273,2.0161.0068,4.0254-.0635,6.0269ZM169.8912,107.9441c.0557.084.0762.168.0625.252s-.0518.1504-.1152.1992-.1367.0742-.2207.0742-.1611-.042-.2305-.126c-.168-.2246-.3398-.4414-.5146-.6514-.1758-.21-.3604-.4131-.5566-.6094-.1963-.168-.4062-.3213-.6299-.4619-.2246-.1396-.4551-.2725-.6934-.3984-.0977-.042-.1992-.0771-.3047-.1055-.1045-.0273-.2061-.0557-.3037-.084-.0986-.042-.1611-.1016-.1895-.1787-.0283-.0762-.0312-.1504-.0107-.2197.0215-.0703.0635-.1299.126-.1787.0635-.0488.1436-.0596.2422-.0322.3779.1123.7451.2627,1.1025.4521.3564.1885.6816.4092.9766.6611.2373.1963.458.417.6611.6621.2031.2451.4023.4932.5986.7451ZM169.1138,91.9001c-.042.21-.1465.3149-.3145.3149s-.2734-.105-.3154-.3149c-.0137-.0977.0137-.1748.084-.231s.1475-.084.2314-.084.1602.0278.2305.084.0977.1333.084.231ZM170.6256,109.0154c.0146.1113-.0176.2021-.0938.2725-.0771.0703-.1611.1084-.252.1152-.0918.0078-.1719-.0137-.2422-.0625s-.0908-.1367-.0625-.2627c.0137-.0977.0527-.1787.1152-.2412.0635-.0635.1289-.1016.1992-.1152.0703-.0146.1367.0029.2002.0518.0625.0488.1074.1299.1357.2422Z" style="fill:#fff; stroke-width:0px;"/><path d="M175.5132,114.1072c-.2109,0-.4199-.0088-.627-.0273-.999-.0801-2.0088-.4365-2.875-1.0273-.6465-.4424-1.1982-.9814-1.6436-1.6064-.4521-.6318-.7871-1.3428-.9912-2.1055-.2578-.959-.2764-1.9844-.0527-2.958.293-1.2344.6318-2.4346,1.0176-3.5996.1826-.5518.3682-1.1016.5557-1.6514-.2197-.5898-.3359-1.2188-.3359-1.8604,0-1.0039.2734-1.9512.7617-2.7598.1201-.4121.29-.8154.5117-1.2012l.0439-.0771c.1289-.2432.2334-.4336.3457-.6328.0332-.0596.0645-.1162.0898-.1709.0811-.1719.1787-.3711.3018-.584.3271-.6064.6875-1.1943,1.0732-1.75.3877-.5576.7939-1.0928,1.2109-1.5977l.1514-.1816.167-.167.0186-.0273c.2861-.3213.665-.7158,1.1836-1.0654l.2686-.1816.29-.1445c.7627-.3818,1.5752-.5752,2.4141-.5752h.4814l.5264.0967c.0654.0127.1309.0273.1953.042.1992-.0195.4014-.0293.6035-.0293.3457,0,.6904.0264,1.0312.0791,1.3428.0918,2.5898.5908,3.6299,1.458.5811.4775,1.0908,1.0742,1.4883,1.75.1621.2793.3027.54.4336.7998.1816.3672.3428.7383.4834,1.1211.0938.2559.1826.5117.2686.7666.6563,1.9531,1.2344,3.9609,1.7158,5.9619.4512,1.876.8955,3.7588,1.333,5.6494.2803,1.2695.1836,2.5244-.2695,3.6787-.3857.9795-.9717,1.8174-1.7441,2.5-.8281.7266-1.8291,1.2246-2.9053,1.4502-.4365.0889-.8633.1328-1.2891.1328-.6904,0-1.3809-.1133-2.0498-.3369l-.1152-.04c-.7432-.2676-1.4189-.667-2.0107-1.1855-.0342-.0303-.0674-.0605-.1006-.0908-.0547-.001-.1084-.002-.1621-.002-.1113,0-.2227.0029-.334.0078,0,0-.2549.0439-.3418.0576-.0039.0039-.0078.0088-.0117.0127-.2705.2891-.582.5742-.9131.833l-.248.1943-.2705.1621c-.7236.4316-1.5137.708-2.3496.8203-.3447.0439-.6523.0625-.9551.0625Z" style="fill:#db291c; stroke-width:0px;"/><path d="M176.2545,108.9314c-.1406.084-.291.1357-.4512.1572-.1611.0205-.3193.0244-.4727.0107-.1826-.0146-.3506-.0742-.5039-.1787-.1543-.1055-.2842-.2314-.3887-.3779-.1055-.1475-.1826-.3115-.2314-.4941-.0488-.1816-.0518-.3633-.0098-.5459.252-1.0635.5488-2.1133.8916-3.1494.3438-1.0361.6963-2.0723,1.0605-3.1084.4619-1.2598.9873-2.5059,1.5752-3.7378.5879-1.2319,1.2949-2.373,2.1211-3.4229.1123-.1543.2412-.2944.3887-.4204.1465-.126.3115-.2236.4932-.2939.1543-.0698.3115-.105.4727-.105s.3184.021.4727.063c.0283.0142.0488.0181.0625.0107.0146-.0068.0283-.0107.042-.0107.3369,0,.6309.105.8828.3149.1533.126.2793.2734.3779.4414.0977.168.1885.3359.2725.5039.0977.1963.1855.3989.2627.6089s.1504.4199.2207.6299c.6162,1.8345,1.1475,3.6821,1.5957,5.5439.4482,1.8623.8887,3.7314,1.3232,5.6074.0557.252.0381.4932-.0527.7246-.0908.2305-.2236.4229-.3984.5771-.1758.1543-.3818.2549-.6201.3047-.2383.0488-.4824.0312-.7344-.0527-.1543-.0557-.291-.1367-.4102-.2412-.1191-.1055-.2207-.2207-.3047-.3467-.042-.0557-.0869-.168-.1357-.3359-.0498-.168-.0947-.3428-.1367-.5254-.042-.1816-.0811-.3564-.1152-.5244-.0352-.168-.0605-.2939-.0742-.3779-.0557-.0283-.1123-.0527-.168-.0742-.0557-.0205-.1123-.0381-.168-.0518-.4482-.1123-.8955-.1787-1.3438-.2002-.4482-.0205-.8965-.0449-1.3438-.0732-.4062-.0137-.8164-.0107-1.2285.0107-.4131.0205-.8232.0449-1.2285.0732-.0703.0137-.207.0244-.4102.0312-.2031.0078-.3389.0254-.4092.0527-.1123.3643-.2139.7354-.3047,1.1133s-.1855.7559-.2832,1.1338c-.042.1543-.1191.29-.2314.4092-.1113.1191-.2305.2275-.3564.3262ZM176.1285,99.0823c.084.1118.0977.2275.042.3462-.0566.1191-.1475.1787-.2734.1787-.084,0-.1611-.0317-.2305-.0947-.0703-.063-.1055-.1431-.1055-.2412,0-.1543.0703-.2524.21-.2944s.2588-.0068.3574.1055ZM176.7164,98.116c-.0557.0981-.126.1577-.21.1787s-.1572.0103-.2207-.0317c-.0625-.042-.1123-.105-.1465-.189-.0352-.084-.0254-.1748.0312-.2729.0273-.042.0801-.1367.1572-.2837s.1611-.3008.252-.4619c.0908-.1606.1719-.3149.2422-.4619.0693-.147.1182-.2417.1465-.2837.252-.4756.5283-.9307.8291-1.3647.3018-.4336.6201-.854.9561-1.2603.042-.042.1191-.126.2305-.252.1123-.126.1895-.2026.2314-.231.084-.042.1611-.0557.2314-.042.0693.0142.126.0493.168.105.042.0562.0654.123.0732.1997.0068.0771-.0176.1504-.0732.2202-.5889.6304-1.0996,1.2886-1.5332,1.9741-.252.4062-.4873.8159-.7041,1.2285-.2168.4131-.4375.8228-.6611,1.2285ZM178.3756,103.1355c.7842-.0566,1.5645-.0771,2.3418-.0635.7764.0137,1.5498.0635,2.3203.1475-.252-1.0918-.5254-2.1704-.8193-3.2344-.2939-1.064-.6162-2.1211-.9658-3.1709-.6299.9658-1.1689,1.9878-1.6172,3.0659-.4482,1.0781-.8682,2.1636-1.2598,3.2554ZM180.2027,106.9783c-.042,0-.1123.0068-.21.0205-.0986.0146-.207.0322-.3262.0527-.1191.0215-.2275.0391-.3252.0527s-.1611.0205-.1895.0205c-.1816-.0137-.2871-.1045-.3145-.2725-.0283-.168.0352-.2871.1885-.3574.042-.0137.1191-.0273.2314-.042.1123-.0137.2314-.0273.3574-.042.126-.0137.2441-.0273.3564-.042.1123-.0137.1895-.0205.2314-.0205.0557,0,.1572-.0039.3037-.0107.1475-.0068.3047-.0107.4727-.0107h.4727c.1475,0,.249.0078.3047.0215.0977.0137.168.0557.21.126s.0557.1396.042.21-.0488.1357-.1055.1992c-.0557.0635-.1328.0947-.2305.0947-.4902-.0283-.9805-.0283-1.4697,0ZM183.1637,106.6209c.042.1123.0244.2207-.0527.3262-.0771.1045-.1787.1436-.3047.1152-.1396-.0283-.2305-.1084-.2725-.2422-.042-.1328-.0078-.2412.1045-.3252.0977-.0693.1992-.0947.3047-.0732.1045.0205.1787.0879.2207.1992Z" style="fill:#fff; stroke-width:0px;"/><path d="M193.3775,113.8191c-.3652,0-.7383-.0322-1.1094-.0947-1.2324-.2139-2.3213-.7393-3.1787-1.5254-.3594-.2734-.7021-.6016-1.0039-.9668l-.1543-.1875-.1709-.2461c-.1299-.1777-.252-.3516-.3789-.543l-.1885-.2793c-.1338-.1934-.2852-.4248-.4307-.7002-.4727-.8008-.9141-1.6221-1.3203-2.457-.2871-.1572-.5605-.3398-.8174-.5469-.8223-.6514-1.4004-1.5322-1.6963-2.5039-.1104-.207-.207-.4229-.291-.6465l-.0664-.1885c-.3398-1.0352-.666-2.1074-.9678-3.1865-.3535-1.2598-.5967-2.5615-.7236-3.8691-.1748-1.583.3633-3.1377,1.4678-4.2598.1924-.4238.4326-.8271.7188-1.2012.8262-1.0859,1.9492-1.876,3.2412-2.2754.6094-.1885,1.2412-.2842,1.876-.2842.75,0,1.4941.1328,2.2129.3945,1.5068.5498,2.7344,1.6631,3.4697,3.1406.1797-.334.3877-.6523.623-.9541.9102-1.1689,2.1455-1.957,3.5674-2.2734.4561-.1045.9424-.1592,1.4238-.1592.7373,0,1.4629.127,2.1572.377,1.1035.3984,2.084,1.0977,2.8359,2.0234.9131,1.1289,1.3926,2.5,1.3926,3.9717,0,.5791-.0967,1.0654-.1689,1.3809-.0576.2441-.1182.4688-.1904.71,0,0-.1514.5117-.1738.582-.2793,1.0312-.5986,2.0566-.9512,3.0508-.0029.0088-.0068.0176-.0098.0264.3682,1.1592.3232,2.416-.1416,3.5771-.7119,1.8213-1.5859,3.5654-2.5996,5.1875-.0947.1602-.1992.3184-.3174.4805-.0371.0635-.0791.1348-.1279.21-.0947.166-.2314.3838-.4141.6191-.3545.6826-.8623,1.2979-1.4873,1.7783-.8047.6426-1.877,1.0439-2.9922,1.1025-.1289.0684-.2607.1328-.3936.1924-.7842.3613-1.6309.5439-2.5205.5439Z" style="fill:#db291c; stroke-width:0px;"/><path d="M187.9088,101.1609c.042.1123.0381.2031-.0107.2729-.0488.0703-.1084.1191-.1787.147-.0703.0283-.1436.0283-.2197,0-.0771-.0278-.1367-.0977-.1787-.21-.3223-.9795-.623-1.9702-.9033-2.9712s-.4688-2.0195-.5664-3.0557c-.0146-.0977.0098-.1748.0732-.231.0625-.0557.1328-.0874.21-.0947.0762-.0068.1504.0107.2207.0527.0693.042.1113.1123.126.21,0,.0283.0068.1016.0205.2207s.0215.1924.0215.2202c.0977.9243.2793,1.8374.5459,2.7407.2656.9028.5459,1.8027.8398,2.6982ZM193.8306,108.7214c-.1963.0977-.4375.1221-.7246.0732-.2871-.0498-.5078-.1504-.6611-.3047-.0703-.084-.1543-.1572-.252-.2207-.0986-.0625-.1826-.1367-.252-.2207-.0283-.042-.0811-.1152-.1582-.2197-.0771-.1055-.1572-.2207-.2412-.3467s-.165-.2451-.2412-.3574c-.0771-.1113-.123-.1885-.1367-.2305-.7139-1.1904-1.3369-2.4189-1.8691-3.6855s-1.001-2.5586-1.4072-3.8745c-.252-.7983-.4795-1.603-.6816-2.415-.2031-.812-.3398-1.6382-.4102-2.478-.042-.3921.0391-.7212.2422-.9873.2021-.2656.4512-.4443.7451-.5352s.5947-.0806.9033.0312c.3076.1123.5459.3433.7139.6929.0273.0562.0518.1123.0732.1685.0205.0557.0381.1187.0527.189v.3779c.1533,1.0918.3809,2.1665.6826,3.2231.3008,1.0576.6475,2.104,1.0391,3.1396.2803.77.5947,1.5303.9453,2.2783.3496.749.7275,1.4805,1.1338,2.1943.4199-.6719.8086-1.3467,1.165-2.0264.3574-.6787.7109-1.3682,1.0605-2.0684.5039-.9937.9482-2.0054,1.334-3.0342.3848-1.0293.7246-2.0825,1.0186-3.1606.0693-.2378.1367-.4829.1992-.7349.0635-.252.1719-.4761.3252-.6724.1963-.252.4346-.4092.7148-.4722.2793-.063.5459-.0488.7979.042.252.0913.4688.2485.6504.4722.1816.2241.2734.4971.2734.8193,0,.0562-.0146.1436-.042.2622-.0283.1191-.0635.249-.1055.3887-.042.1401-.0801.2695-.1152.3887s-.0596.1992-.0732.2412c-.252.938-.5391,1.8623-.8613,2.772-.3223.9102-.6855,1.8062-1.0918,2.688-.252.5601-.5186,1.1133-.7979,1.6592-.2803.5459-.5605,1.085-.8398,1.6172-.3359.6299-.6826,1.2461-1.04,1.8477-.3564.6025-.7529,1.1836-1.1865,1.7432-.126.1543-.2627.2969-.4092.4307-.1475.1328-.3047.2344-.4727.3047ZM188.3287,102.2117c.0137.1113-.0176.1885-.0947.2305s-.1572.0557-.2412.042-.1611-.0488-.2314-.1055c-.0703-.0557-.084-.1328-.042-.2305.0703-.1963.1787-.2871.3262-.2725.1465.0137.2412.125.2832.3359ZM196.2877,107.5447c.0703.084.0947.1719.0732.2627-.0205.0918-.0625.1611-.126.21-.0625.0498-.1396.0732-.2305.0732-.0918,0-.165-.0488-.2207-.1465-.0566-.0977-.0732-.1895-.0527-.2734.0215-.084.0635-.1465.126-.1885.0635-.042.1328-.0635.21-.0635s.1504.042.2207.126ZM196.8131,107.1462c-.0566.0703-.123.1084-.2002.1152s-.1465-.0068-.21-.042c-.0625-.0352-.1084-.0869-.1357-.1572-.0283-.0703-.0283-.1475,0-.2314.042-.1113.0977-.2129.168-.3047.0693-.0908.1396-.1914.21-.3037.4619-.7285.8887-1.4736,1.2803-2.2373.3926-.7627.749-1.543,1.0713-2.3413.042-.0977.1055-.1641.1895-.1992.084-.0347.1602-.0386.2305-.0107.0703.0283.126.0811.168.1577.042.0771.042.1646,0,.2627-.6162,1.582-1.3652,3.0732-2.2471,4.4727-.0137.0283-.042.0703-.084.126-.042.0566-.084.1152-.126.1787-.042.0625-.0801.126-.1152.1885-.0352.0635-.0596.1025-.0732.1162-.0146.0137-.0352.0488-.0635.1045-.0283.0566-.0488.0918-.0625.1055Z" style="fill:#fff; stroke-width:0px;"/><path d="M202.107,114.0447l-.5693-.1074c-1.4043-.2842-2.5879-1.0752-3.3594-2.2012-.333-.3242-.626-.6934-.8701-1.1025-.0742-.125-.1494-.2559-.2246-.3936-.0625-.1143-.1318-.248-.1953-.375-.0859-.1689-.1641-.3428-.2344-.5186-.2295-.5381-.4092-1.0947-.5332-1.6572-.1094-.5-.1865-.9961-.2324-1.4873-.0957-1.0264-.1055-2.0664-.0293-3.0908.0566-.7646.1279-1.5322.2119-2.3047.0127-.167.0322-.3398.0605-.5273,0,0,.0625-.4912.084-.6299.0283-.207.0869-.5625.2158-.9707.2803-.9004.793-1.7002,1.4688-2.3242.0537-.3232.252-1.6182.3037-1.9375.0391-.9346.2793-1.8311.7139-2.668.332-.6465.7695-1.2471,1.29-1.7676.6445-.6445,1.4141-1.127,2.2871-1.4336.7129-.2471,1.4219-.3672,2.1309-.3672.167,0,.3252.0078.4727.0215.2041-.0088.4277-.0127.6768-.0127l.3457.002c.5469.0088,1.1172.0234,1.7197.0449.6035.0234,1.167.0488,1.7031.0771.5244.0293.8896.0518,1.1055.0664.123.0068.2764.0176.459.0371l.8223.084c.2842.0312.5869.0723.918.1533.4697.1084.9307.2676,1.3711.4746.5664.2695,1.0791.6064,1.5391,1.0098l.1211.1064.1143.1152c.7695.7686,1.3223,1.6758,1.6436,2.6953.333,1.0576.3896,2.1807.165,3.2471-.127.5996-.3418,1.1797-.6338,1.7207-.1016.7021-.3457,1.3867-.7344,2.0107.0947.4404.1426.8916.1426,1.3477,0,.5107-.0605,1.0166-.1797,1.5078.4424.4551.8086.9824,1.084,1.5635.2041.4365.3604.8623.4756,1.29.3789,1.3848.249,2.8438-.3779,4.208-.5723,1.2451-1.4814,2.2412-2.6357,2.8867-.8037.4609-1.749.752-2.8828.8887-.5898.0713-1.2285.1211-1.8984.1484-.4746.0186-.9258.0273-1.3633.0273l-.4414-.0039c-.5371-.0068-.9521-.0195-1.2471-.0342-.5273-.0156-1.0557-.0439-1.583-.082-.3262-.0244-.6475-.0615-.9658-.1104-.6113.2432-1.2725.373-1.9551.373h-.499Z" style="fill:#db291c; stroke-width:0px;"/><path d="M202.1685,107.8181c.0557.1396.0273.2559-.084.3467-.1123.0908-.2314.1016-.3574.0312-.042-.0137-.084-.0557-.126-.126s-.084-.1436-.126-.2207c-.042-.0762-.0801-.1504-.1152-.2207-.0352-.0693-.0596-.126-.0732-.168-.126-.2793-.2207-.5635-.2842-.8506-.0625-.2861-.1084-.5771-.1357-.8711-.0703-.7559-.0771-1.5088-.0215-2.2578.0557-.748.126-1.501.21-2.2573,0-.042.0068-.1118.0215-.21.0137-.0977.0273-.2026.042-.3149.0137-.1118.0273-.2168.042-.3149.0137-.0977.0273-.168.042-.21.0273-.0977.0801-.1606.1572-.189.0771-.0278.1504-.0317.2207-.0107.0693.021.1289.0669.1787.1367.0488.0703.0654.1543.0518.252-.0703.3223-.1191.6372-.1465.9448-.0283.3081-.0566.6226-.084.9448-.0703.6025-.1191,1.2041-.1475,1.8066-.0283.6016-.0068,1.2041.0635,1.8057.0693.6025.252,1.1689.5459,1.7012.0137.0283.0381.0703.0732.126s.0527.0977.0527.126ZM212.4791,108.4871c-.21.127-.5498.2188-1.0186.2754-.4688.0566-.9697.0947-1.501.1162-.5322.0205-1.043.0273-1.5332.0205-.4902-.0068-.8613-.0176-1.1133-.0312-.4756-.0137-.9521-.0391-1.4277-.0732-.4756-.0361-.9453-.1172-1.4072-.2441-.2383-.0703-.4756-.1553-.7139-.2539s-.4551-.2324-.6504-.4023c-.2666-.2256-.4766-.5039-.6309-.8359-.1543-.3311-.2656-.666-.3359-1.0039-.126-.6729-.1641-1.3545-.1152-2.0479s.1084-1.376.1787-2.0469c.084-.7705.1748-1.5337.2725-2.2896.0986-.7563.2031-1.519.3154-2.2891.0703-.4199.1367-.8398.1992-1.2603.0635-.4199.1299-.8398.2002-1.2598v-.168c0-.2236.0518-.4375.1572-.6406.1045-.2026.2344-.3813.3887-.5356.1113-.1118.248-.1958.4092-.252.1611-.0557.3184-.084.4727-.084.0273,0,.0908.0107.1885.0317s.1611.0244.1895.0103c.1953-.0278.5459-.0381,1.0498-.0312.5039.0073,1.04.021,1.6064.042.5674.021,1.1055.0454,1.6172.0732.5107.0283.8643.0493,1.0605.063.042,0,.1289.0073.2627.021.1328.0142.2695.0283.4092.042.1396.0142.2764.0283.4092.042.1328.0142.2207.0283.2627.042.1396.0283.2764.0737.4092.1367.1338.063.2559.1436.3682.2417.1953.1958.332.4165.4092.6611.0771.2451.0908.4829.042.7144-.0488.231-.1543.4409-.3145.6299-.1611.189-.375.3184-.6406.3882-.1406.0283-.2871.0459-.4414.0527-.1543.0073-.2939-.0244-.4199-.0947l-.21-.105c-.168-.0137-.4971-.0347-.9873-.063-.4902-.0278-1.0078-.0522-1.5537-.0732s-1.0645-.042-1.5537-.063c-.4902-.021-.8193-.0317-.9873-.0317-.1123.6304-.2139,1.2637-.3047,1.9009-.0908.6372-.1787,1.2705-.2627,1.9004.1543.0142.459.0386.9141.0732.4551.0352.9414.0703,1.459.105.5186.0352,1.0049.0669,1.46.0947.4551.0283.7588.042.9131.042.084,0,.165-.0034.2422-.0107.0762-.0068.1572-.0029.2412.0107.3779.0703.6582.2383.8398.5039.1816.2661.2734.5498.2734.8506,0,.3013-.0918.584-.2734.8506-.1816.2656-.4619.4268-.8398.4824-.042.0146-.1152.0215-.2207.0215h-.9131c-.1406-.0137-.4238-.0352-.8506-.0635-.4277-.0273-.8818-.0557-1.3652-.084-.4834-.0273-.9385-.0586-1.3652-.0938s-.7109-.0596-.8506-.0742c-.0557.4482-.0977.9004-.126,1.3545-.0283.4551-.0283.9072,0,1.3545.0137.1123.0283.2246.042.3359.0137.1123.042.2246.084.3369.1123.0557.2275.0937.3467.1152.1191.0205.2344.0459.3467.0732.4199.0703.8438.1123,1.2705.126.4268.0146.8506.0215,1.2705.0215.4482,0,.8887-.0039,1.3232-.0107.4336-.0068.874-.0244,1.3223-.0527.126,0,.2529-.0137.3789-.042.126-.0273.252-.0557.3779-.084.1953-.042.3916-.0313.5879.0312.1953.0635.3701.1514.5244.2637.1396.085.2451.2012.3154.3496.0693.1484.126.2998.168.4551.0693.2539.0381.5254-.0947.8145s-.3184.4971-.5566.624ZM202.8609,108.5535c.0566.126.0498.2441-.0205.3564s-.1748.1543-.3154.126c-.1396-.0283-.2305-.1045-.2725-.2305s-.0146-.2451.084-.3574c.0693-.084.1641-.1152.2832-.0947.1191.0215.1992.0879.2412.2002ZM210.6734,96.7092c.0977.0278.1611.0806.1885.1572.0283.0771.0322.1543.0107.231-.0205.0771-.0625.1401-.126.189-.0625.0493-.1436.0601-.2412.0317-.4619-.1118-.9277-.1787-1.3965-.1997-.4697-.021-.9414-.0239-1.418-.0103h-.3564c-.1826,0-.3018.0073-.3574.021-.1543.0562-.2832.0352-.3887-.063-.1045-.0981-.1152-.2241-.0312-.3779.042-.0562.1055-.0981.1895-.126.084-.0283.1777-.0493.2832-.063.1055-.0142.2129-.021.3252-.021h.2734c.3633-.0142.7314-.0142,1.1025,0,.3711.0137.7383.042,1.1025.084.042,0,.1016.0068.1787.021.0762.0137.1602.0278.252.042.0908.0137.1748.0278.252.042.0762.0137.1289.0278.1572.042ZM212.0806,96.9612c.1533.1821.1855.3325.0938.4512-.0908.1191-.2344.144-.4297.0737-.0986-.042-.1514-.105-.1582-.189s.0176-.1646.0742-.2417c.0557-.0767.1221-.1328.1992-.168.0771-.0347.1504-.0103.2207.0737Z" style="fill:#fff; stroke-width:0px;"/><path d="M223.1382,113.5105c-.6523-.0088-1.3057-.0137-1.958-.0137l-1.2344.0049c-1.1094,0-2.2275-.0547-3.3252-.1611-.3174-.0283-.6504-.0791-.959-.1436l-.583-.1299c-1.1006-.2754-2.126-.8398-2.9678-1.6328-.8232-.7764-1.417-1.7021-1.7656-2.75-.21-.6113-.3379-1.251-.3789-1.9062-.0293-.459-.0195-.9199.0264-1.3721.0322-.625.0527-1.25.0625-1.8662-.4521-.5938-.7822-1.2861-.9561-2.0391-.1758-.7363-.1855-1.4883-.0439-2.21-.001-.0273-.001-.2705-.001-.2705,0,0,.0625-.8613.083-1.1846.0137-.2334.0215-.4873.0215-.749,0-.0732-.0078-.1494-.0225-.2314-.1006-.5391-.1738-1.1025-.2158-1.6621l-.0068-.1084c-.083-1.5723.3242-3.1025,1.1797-4.4287.165-.2607.3535-.5254.5664-.7881.5049-.6182,1.0977-1.1152,1.7764-1.4941l.1777-.0986.1855-.085c.7148-.3252,1.4678-.4902,2.2402-.4902.8086,0,1.6025.1885,2.3213.54.125.0195.25.043.373.0713.543.124,1.0459.3018,1.5225.5332.8691.417,1.6338,1.0459,2.2158,1.8242.3242.4316.5986.8984.8184,1.3877l.0908.2139c.1885.4775.3105.9814.3838,1.585.0361.2832.0625.6074.0752.9434l.0195.4805c.0127.2871.0156.4814.0156.6104,0,.2227-.0381,3.4131-.042,3.6914.0508-.002.1016-.0029.1523-.0029.7139,0,1.4131.1436,2.0781.4268,1.1934.5137,2.1514,1.4102,2.7119,2.5322.0547.1094.1055.2197.1523.332.4932.54.8887,1.1543,1.1689,1.8193.4561,1.0752.6016,2.2744.4189,3.4609-.2031,1.3242-.8203,2.5352-1.7842,3.498-1.2012,1.2021-2.8076,1.8643-4.5225,1.8643l-.0713-.001Z" style="fill:#db291c; stroke-width:0px;"/><path d="M214.6842,99.2502c0,.0981-.0352.1714-.1055.2202-.0703.0493-.1436.0703-.2207.063-.0771-.0068-.1465-.0381-.21-.0942-.0625-.0562-.0938-.1333-.0938-.231.0273-.3643.0518-.7173.0732-1.0605.0205-.3433.0313-.6963.0313-1.0605,0-.3779-.0352-.7563-.1045-1.1343-.0703-.3779-.1191-.7559-.1475-1.1338-.0283-.5317.1055-1.022.3994-1.4702.0693-.1118.1504-.2236.2412-.3359.0908-.1118.1992-.2026.3252-.2729.1543-.0698.2842-.0488.3887.063.1055.1123.1152.2383.0312.3779-.0283.042-.084.0913-.168.147-.084.0562-.1777.1753-.2832.3569-.1045.1821-.1719.3154-.1992.3994-.0986.2798-.1299.5703-.0947.8711.0352.3013.0732.5918.1152.8716.0977.5742.1396,1.1445.126,1.7114-.0137.5674-.0488,1.1377-.1045,1.7119ZM214.6207,100.2581c.0283.126-.0107.2275-.1152.3047-.1055.0767-.2139.0942-.3252.0522-.1123-.042-.1826-.1226-.21-.2412-.0283-.1191.0068-.2207.1045-.3047.0977-.0698.2061-.0874.3252-.0527.1191.0352.1924.1157.2207.2417ZM224.1969,108.1121c-.2656.2656-.5947.3994-.9873.3994-1.0215-.0146-2.0439-.0186-3.0654-.0107-1.0225.0068-2.0352-.0391-3.0391-.1367-.1533-.0137-.2959-.0352-.4277-.0625-.1318-.0283-.2607-.0566-.3857-.085-.2773-.0693-.5273-.21-.75-.4199s-.375-.4473-.459-.7139c-.0703-.1953-.1123-.4023-.126-.6191s-.0068-.4307.0215-.6406c.0557-1.0361.084-2.0645.084-3.0869s.0137-2.0581.042-3.1079c.0137-.7842.0342-1.561.0625-2.3311.0283-.77.0215-1.54-.0205-2.3101,0-.084-.0107-.1606-.0312-.231-.0215-.0698-.0322-.1396-.0322-.21,0-.3359.1045-.6299.3135-.8823.0967-.1118.2148-.2061.3535-.2832.1396-.0767.2852-.1367.4385-.1787.1523-.042.3047-.0449.458-.0103.1533.0352.2988.0874.4375.1572.1533.0703.2812.1753.3857.3149.1045.1401.1914.2871.2607.4414.0273.0698.0518.189.0723.3569.0215.168.0352.3433.042.5249.0068.1821.0137.3569.0215.5249.0068.168.0098.2939.0098.3779,0,.21-.0029.5708-.0098,1.0815-.0078.5112-.0146,1.0923-.0215,1.7432s-.0176,1.3438-.0313,2.0791c-.0137.7349-.0273,1.4277-.041,2.0791-.0146.6504-.0283,1.2314-.042,1.7432-.0137.5107-.0283.8711-.042,1.0811.9229.0703,1.8428.1016,2.7607.0947.916-.0068,1.8369-.0107,2.7607-.0107.3086,0,.5742.084.7988.252.2236.168.3848.3672.4824.5986.0977.2305.126.4834.084.7559-.042.2734-.168.5146-.3779.7246ZM221.9498,105.2556c-.0703,0-.21.0039-.4199.0107-.21.0078-.4336.0107-.6719.0107h-1.1133c-.0703-.0137-.1963-.0283-.3779-.042s-.3008-.0488-.3564-.1055c-.1123-.0977-.1445-.2168-.0947-.3564.0488-.1396.1504-.2031.3047-.1895.1816.0146.3604.0322.5352.0527.1748.0215.3604.0244.5566.0107.0557,0,.168-.0039.3359-.0107s.3428-.0137.5244-.0205c.1826-.0068.3535-.0107.5146-.0107s.2764.0068.3467.0205c.0977.0146.168.0566.21.126.042.0703.0557.1406.042.21-.0137.0703-.0488.1367-.1045.2002-.0566.0625-.1338.0938-.2314.0938ZM223.1051,104.6052c.0977.042.1641.0977.1992.168s.042.1436.0215.2207c-.0215.0771-.0674.1396-.1367.1885-.0703.0498-.1543.0596-.252.0312-.1123-.0137-.1826-.0586-.21-.1357-.0283-.0771-.0313-.1582-.0107-.2422.0215-.084.0664-.1533.1367-.21.0693-.0557.1533-.0625.252-.0205Z" style="fill:#fff; stroke-width:0px;"/><path d="M154.939,108.2192c-.1396.1113-.3076.1914-.5039.2412-.1963.0488-.3916.0664-.5879.0527-.1543-.0146-.3008-.0674-.4404-.1582-.1406-.0908-.2666-.1924-.3779-.3047-.1123-.1113-.1895-.2441-.2314-.3984s-.0703-.3076-.084-.4619c-.0137-.042-.0107-.1367.0107-.2832.0205-.1475.0312-.2344.0312-.2627.042-.7139.0947-1.4141.1572-2.1006.0635-.6855.123-1.3857.1787-2.0996.084-1.1343.1289-2.2646.1367-3.3916.0068-1.127.0029-2.2573-.0107-3.3916h-4.3262c-.3076,0-.5742-.0801-.7979-.2412s-.3848-.3604-.4834-.5986c-.0977-.2378-.126-.4937-.084-.7666s.1758-.5146.3994-.7246c.2656-.2656.5811-.3989.9453-.3989h10.5625c.3643,0,.7002.1401,1.0078.4199.21.21.3369.4517.3789.7246s.0098.5249-.0947.7559c-.1055.231-.2695.4272-.4941.5884-.2236.1611-.4902.2412-.7979.2412h-3.4854c.0137.7983.0205,1.5825.0205,2.3521,0,.77-.0137,1.5542-.042,2.3521-.0283.6719-.0625,1.3442-.1045,2.0156-.042.6729-.0986,1.3447-.168,2.0166-.0146.0977-.0322.29-.0527.5771-.0215.2871-.042.5918-.0635.9141-.0205.3223-.042.626-.0625.9131-.0215.2871-.0391.4795-.0527.5771-.042.3223-.2031.6025-.4834.8408ZM158.2789,91.7758c.0977.0142.168.0562.21.126.042.0703.0557.1401.042.21-.0146.0703-.0459.1362-.0947.1992-.0498.063-.123.0947-.2207.0947-1.1758-.0278-2.3418-.0596-3.4961-.0947-1.1553-.0347-2.3213-.0659-3.4971-.0942-.1123,0-.1963-.0317-.252-.0947s-.084-.1362-.084-.2202.0283-.1577.084-.2207.1396-.0942.252-.0942l6.7197.168c.0283.0142.084.021.168.021h.1689ZM151.8941,105.7622c.042.0977.0391.1855-.0098.2617-.0498.0771-.1123.1338-.1895.168-.0771.0352-.1543.0391-.2314.0107-.0762-.0273-.1357-.0908-.1777-.1885-.042-.0986-.0391-.1855.0098-.2627.0498-.0771.1123-.1328.1895-.168s.1543-.0391.2314-.0107c.0762.0283.1357.0908.1777.1895ZM152.0621,104.8588c-.042.084-.0977.1436-.168.1787s-.1396.042-.21.0205c-.0703-.0205-.1289-.0625-.1787-.126-.0488-.0625-.0664-.1436-.0518-.2412.0137-.0283.0381-.1123.0732-.252s.0596-.2236.0732-.252c.2236-.9238.3643-1.8623.4199-2.8145.0557-.9517.042-1.9038-.042-2.856,0-.0557-.0068-.1396-.0205-.252-.0146-.1118-.0312-.231-.0527-.3569-.0205-.126-.042-.2446-.0625-.3569-.0215-.1118-.0459-.189-.0742-.231-.042-.084-.0518-.1646-.0312-.2417.0215-.0767.0596-.1362.1152-.1782s.123-.0596.2002-.0527c.0762.0073.1494.0459.2197.1157.0566.0562.0908.1191.1055.189.126.4761.2061.9624.2412,1.4595s.0527.9907.0527,1.4805c0,.5742-.0176,1.1445-.0527,1.7114-.0352.5674-.1084,1.1309-.2207,1.6904-.0137.0566-.0352.1475-.0625.2734-.0283.126-.0596.2617-.0947.4092s-.0703.2871-.1045.4199c-.0352.1328-.0605.2207-.0742.2627ZM159.6431,92.2377c0,.1123-.0381.1855-.1152.2207-.0771.0347-.1611.0454-.252.0312-.0908-.0137-.168-.0527-.2314-.1157-.0625-.063-.0732-.1431-.0312-.2412.084-.2236.21-.3218.3779-.2939.168.0283.252.1611.252.3989Z" style="fill:#fff; stroke-width:0px;"/><path d="M163.6334,108.2397c-.1123.1123-.2451.1895-.3994.2314s-.3086.0693-.4619.084c-.2666.0273-.5283-.0527-.7881-.2422-.2588-.1885-.4297-.4023-.5137-.6406-.0566-.1533-.084-.3008-.084-.4404s.0068-.2871.0205-.4414c.042-.6719.084-1.333.126-1.9844.042-.6514.0771-1.3125.1055-1.9844.0137-.1963.0273-.5146.042-.9551.0137-.4414.0244-.9487.0313-1.5229.0068-.5737.0176-1.1724.0312-1.7954s.0215-1.2212.0215-1.7954v-1.5225c0-.4414-.0078-.7593-.0215-.9556-.0283-.2383.0352-.4795.1895-.7246.1533-.2446.3496-.4233.5879-.5356.0557-.0278.1572-.0591.3047-.0942.1465-.0352.3037-.0737.4717-.1157.1689-.042.3262-.0767.4727-.105.1475-.0278.2559-.0488.3262-.063.6719-.0977,1.3398-.1538,2.0049-.168.665-.0137,1.334.021,2.0059.105.6582.084,1.3018.252,1.9316.5039.6299.252,1.1904.5879,1.6807,1.0083.4473.3643.832.7979,1.1543,1.3018s.5459,1.0361.6719,1.5962c.0703.2939.1123.5913.126.8926.0146.3008.0078.6055-.0205.9131-.042.3643-.123.7285-.2412,1.0923-.1191.3643-.2559.7212-.4102,1.0708-.2383.5181-.5771.9873-1.0186,1.4072-.4404.4199-.9199.7559-1.4385,1.0078.5322.4062,1.0156.875,1.4492,1.4072s.8467,1.085,1.2393,1.6592c.1113.1543.1709.332.1787.5352.0068.2031-.0176.4023-.0742.5986-.0557.1963-.1572.3643-.3037.5039-.1475.1396-.3125.252-.4941.3359-.1396.0703-.29.0977-.4512.084s-.3184-.042-.4727-.084-.2939-.1191-.4199-.2314c-.126-.1113-.2314-.2373-.3154-.3779-.2939-.4199-.6055-.8252-.9336-1.2178-.3291-.3916-.6973-.749-1.1025-1.0713-.3086-.252-.6445-.4648-1.0088-.6396s-.7344-.3262-1.1123-.4521c-.042-.0137-.123-.0342-.2422-.0625s-.2412-.0527-.3672-.0732c-.126-.0215-.2451-.043-.3574-.0635-.1113-.0215-.1885-.0312-.2305-.0312h-.6094c-.21,0-.4131-.0068-.6084-.0215,0,.1123-.0107.3223-.0322.6299-.0205.3086-.0449.6406-.0732.998-.0283.3564-.0527.6924-.0732,1.0078-.0215.3154-.0312.5215-.0312.6191-.0283.1543-.084.3018-.168.4414s-.1826.2656-.2939.3779ZM163.6959,92.2587c-.042,0-.1123.0142-.21.042-.0977.0283-.1992.0522-.3047.0732-.1045.021-.2061.042-.3047.063-.0977.0215-.168.0317-.21.0317-.0977,0-.1748-.0317-.2305-.0947-.0566-.063-.084-.1289-.084-.1992,0-.0698.0244-.1387.0732-.207s.1221-.1089.2207-.1226c.0273,0,.0869-.0103.1787-.0308.0908-.0205.1885-.0405.2939-.061.1045-.0205.2021-.0405.2939-.061.0908-.0205.1504-.0303.1787-.0303.4893-.0811.9834-.1421,1.4805-.1831.4961-.0405.9971-.0674,1.501-.0811.042,0,.1191-.0034.2314-.0107.1113-.0068.2236-.0068.3359,0,.1113.0073.2236.0142.3359.0205.1113.0073.1885.0171.2305.0308.084.0273.1396.0747.168.1426.0283.0674.0352.1353.0215.2031-.0146.0674-.0459.125-.0947.1724s-.1152.0713-.1992.0713c-.6582-.0269-1.3125-.0195-1.9639.0215-.6504.042-1.2988.1118-1.9424.2095ZM164.4097,101.3725c.5459.042,1.0986.0737,1.6592.0947.5596.021,1.1055-.0107,1.6377-.0947.3643-.0557.7178-.1362,1.0605-.2412s.6621-.2554.9561-.4517c.1533-.0977.2939-.2202.4199-.3677.126-.147.2373-.2969.3359-.4512.1533-.2798.2725-.5913.3564-.9346.084-.3428.1123-.6753.084-.9976-.042-.4199-.1885-.8115-.4404-1.1758-.1543-.2241-.333-.4204-.5352-.5884-.2031-.168-.4238-.3149-.6621-.4409-.252-.126-.5146-.2202-.7871-.2832-.2734-.063-.5498-.1157-.8301-.1577-.5322-.084-1.0635-.1118-1.5957-.084-.5322.0283-1.0645.0771-1.5957.147.0273,2.0161.0068,4.0254-.0635,6.0269ZM169.8912,107.9038c.0557.084.0762.168.0625.252s-.0518.1504-.1152.1992-.1367.0742-.2207.0742-.1611-.042-.2305-.126c-.168-.2246-.3398-.4414-.5146-.6514-.1758-.21-.3604-.4131-.5566-.6094-.1963-.168-.4062-.3213-.6299-.4619-.2246-.1396-.4551-.2725-.6934-.3984-.0977-.042-.1992-.0771-.3047-.1055-.1045-.0273-.2061-.0557-.3037-.084-.0986-.042-.1611-.1016-.1895-.1787-.0283-.0762-.0312-.1504-.0107-.2197.0215-.0703.0635-.1299.126-.1787.0635-.0488.1436-.0596.2422-.0322.3779.1123.7451.2627,1.1025.4521.3564.1885.6816.4092.9766.6611.2373.1963.458.417.6611.6621s.4023.4932.5986.7451ZM169.1138,91.8598c-.042.21-.1465.3149-.3145.3149s-.2734-.105-.3154-.3149c-.0137-.0977.0137-.1748.084-.231s.1475-.084.2314-.084.1602.0278.2305.084.0977.1333.084.231ZM170.6256,108.975c.0146.1113-.0176.2021-.0938.2725-.0771.0703-.1611.1084-.252.1152-.0918.0078-.1719-.0137-.2422-.0625s-.0908-.1367-.0625-.2627c.0137-.0977.0527-.1787.1152-.2412.0635-.0635.1289-.1016.1992-.1152.0703-.0146.1367.0029.2002.0518.0625.0488.1074.1299.1357.2422Z" style="fill:#fff; stroke-width:0px;"/><path d="M176.2545,108.8911c-.1406.084-.291.1357-.4512.1572-.1611.0205-.3193.0244-.4727.0107-.1826-.0146-.3506-.0742-.5039-.1787-.1543-.1055-.2842-.2314-.3887-.3779-.1055-.1475-.1826-.3115-.2314-.4941-.0488-.1816-.0518-.3633-.0098-.5459.252-1.0635.5488-2.1133.8916-3.1494.3438-1.0361.6963-2.0723,1.0605-3.1084.4619-1.2598.9873-2.5059,1.5752-3.7378.5879-1.2319,1.2949-2.373,2.1211-3.4229.1123-.1543.2412-.2944.3887-.4204.1465-.126.3115-.2236.4932-.2939.1543-.0698.3115-.105.4727-.105s.3184.021.4727.063c.0283.0142.0488.0181.0625.0107.0146-.0068.0283-.0107.042-.0107.3369,0,.6309.105.8828.3149.1533.126.2793.2734.3779.4414.0977.168.1885.3359.2725.5039.0977.1963.1855.3989.2627.6089s.1504.4199.2207.6299c.6162,1.8345,1.1475,3.6821,1.5957,5.5439.4482,1.8623.8887,3.7314,1.3232,5.6074.0557.252.0381.4932-.0527.7246-.0908.2305-.2236.4229-.3984.5771-.1758.1543-.3818.2549-.6201.3047-.2383.0488-.4824.0312-.7344-.0527-.1543-.0557-.291-.1367-.4102-.2412-.1191-.1055-.2207-.2207-.3047-.3467-.042-.0557-.0869-.168-.1357-.3359-.0498-.168-.0947-.3428-.1367-.5254-.042-.1816-.0811-.3564-.1152-.5244-.0352-.168-.0605-.2939-.0742-.3779-.0557-.0283-.1123-.0527-.168-.0742-.0557-.0205-.1123-.0381-.168-.0518-.4482-.1123-.8955-.1787-1.3438-.2002-.4482-.0205-.8965-.0449-1.3438-.0732-.4062-.0137-.8164-.0107-1.2285.0107-.4131.0205-.8232.0449-1.2285.0732-.0703.0137-.207.0244-.4102.0312-.2031.0078-.3389.0254-.4092.0527-.1123.3643-.2139.7354-.3047,1.1133s-.1855.7559-.2832,1.1338c-.042.1543-.1191.29-.2314.4092-.1113.1191-.2305.2275-.3564.3262ZM176.1285,99.0419c.084.1118.0977.2275.042.3462-.0566.1191-.1475.1787-.2734.1787-.084,0-.1611-.0317-.2305-.0947-.0703-.063-.1055-.1431-.1055-.2412,0-.1543.0703-.2524.21-.2944s.2588-.0068.3574.1055ZM176.7164,98.0756c-.0557.0981-.126.1577-.21.1787s-.1572.0103-.2207-.0317c-.0625-.042-.1123-.105-.1465-.189-.0352-.084-.0254-.1748.0312-.2729.0273-.042.0801-.1367.1572-.2837s.1611-.3008.252-.4619c.0908-.1606.1719-.3149.2422-.4619.0693-.147.1182-.2417.1465-.2837.252-.4756.5283-.9307.8291-1.3647.3018-.4336.6201-.854.9561-1.2603.042-.042.1191-.126.2305-.252.1123-.126.1895-.2026.2314-.231.084-.042.1611-.0557.2314-.042.0693.0142.126.0493.168.105.042.0562.0654.123.0732.1997.0068.0771-.0176.1504-.0732.2202-.5889.6304-1.0996,1.2886-1.5332,1.9741-.252.4062-.4873.8159-.7041,1.2285-.2168.4131-.4375.8228-.6611,1.2285ZM178.3756,103.0952c.7842-.0566,1.5645-.0771,2.3418-.0635.7764.0137,1.5498.0635,2.3203.1475-.252-1.0918-.5254-2.1704-.8193-3.2344-.2939-1.064-.6162-2.1211-.9658-3.1709-.6299.9658-1.1689,1.9878-1.6172,3.0659-.4482,1.0781-.8682,2.1636-1.2598,3.2554ZM180.2027,106.9379c-.042,0-.1123.0068-.21.0205-.0986.0146-.207.0322-.3262.0527-.1191.0215-.2275.0391-.3252.0527s-.1611.0205-.1895.0205c-.1816-.0137-.2871-.1045-.3145-.2725-.0283-.168.0352-.2871.1885-.3574.042-.0137.1191-.0273.2314-.042.1123-.0137.2314-.0273.3574-.042.126-.0137.2441-.0273.3564-.042.1123-.0137.1895-.0205.2314-.0205.0557,0,.1572-.0039.3037-.0107.1475-.0068.3047-.0107.4727-.0107h.4727c.1475,0,.249.0078.3047.0215.0977.0137.168.0557.21.126s.0557.1396.042.21-.0488.1357-.1055.1992c-.0557.0635-.1328.0947-.2305.0947-.4902-.0283-.9805-.0283-1.4697,0ZM183.1637,106.5805c.042.1123.0244.2207-.0527.3262-.0771.1045-.1787.1436-.3047.1152-.1396-.0283-.2305-.1084-.2725-.2422-.042-.1328-.0078-.2412.1045-.3252.0977-.0693.1992-.0947.3047-.0732.1045.0205.1787.0879.2207.1992Z" style="fill:#fff; stroke-width:0px;"/><path d="M187.9088,101.1206c.042.1123.0381.2031-.0107.2729-.0488.0703-.1084.1191-.1787.147-.0703.0283-.1436.0283-.2197,0-.0771-.0278-.1367-.0977-.1787-.21-.3223-.9795-.623-1.9702-.9033-2.9712s-.4688-2.0195-.5664-3.0557c-.0146-.0977.0098-.1748.0732-.231.0625-.0557.1328-.0874.21-.0947.0762-.0068.1504.0107.2207.0527.0693.042.1113.1123.126.21,0,.0283.0068.1016.0205.2207s.0215.1924.0215.2202c.0977.9243.2793,1.8374.5459,2.7407.2656.9028.5459,1.8027.8398,2.6982ZM193.8306,108.6811c-.1963.0977-.4375.1221-.7246.0732-.2871-.0498-.5078-.1504-.6611-.3047-.0703-.084-.1543-.1572-.252-.2207-.0986-.0625-.1826-.1367-.252-.2207-.0283-.042-.0811-.1152-.1582-.2197-.0771-.1055-.1572-.2207-.2412-.3467s-.165-.2451-.2412-.3574c-.0771-.1113-.123-.1885-.1367-.2305-.7139-1.1904-1.3369-2.4189-1.8691-3.6855s-1.001-2.5586-1.4072-3.8745c-.252-.7983-.4795-1.603-.6816-2.415-.2031-.812-.3398-1.6382-.4102-2.478-.042-.3921.0391-.7212.2422-.9873.2021-.2656.4512-.4443.7451-.5352s.5947-.0806.9033.0312c.3076.1123.5459.3433.7139.6929.0273.0562.0518.1123.0732.1685.0205.0557.0381.1187.0527.189v.3779c.1533,1.0918.3809,2.1665.6826,3.2231.3008,1.0576.6475,2.104,1.0391,3.1396.2803.77.5947,1.5303.9453,2.2783.3496.749.7275,1.4805,1.1338,2.1943.4199-.6719.8086-1.3467,1.165-2.0264.3574-.6787.7109-1.3682,1.0605-2.0684.5039-.9937.9482-2.0054,1.334-3.0342.3848-1.0293.7246-2.0825,1.0186-3.1606.0693-.2378.1367-.4829.1992-.7349.0635-.252.1719-.4761.3252-.6724.1963-.252.4346-.4092.7148-.4722.2793-.063.5459-.0488.7979.042.252.0913.4688.2485.6504.4722.1816.2241.2734.4971.2734.8193,0,.0562-.0146.1436-.042.2622-.0283.1191-.0635.249-.1055.3887-.042.1401-.0801.2695-.1152.3887s-.0596.1992-.0732.2412c-.252.938-.5391,1.8623-.8613,2.772-.3223.9102-.6855,1.8062-1.0918,2.688-.252.5601-.5186,1.1133-.7979,1.6592-.2803.5459-.5605,1.085-.8398,1.6172-.3359.6299-.6826,1.2461-1.04,1.8477-.3564.6025-.7529,1.1836-1.1865,1.7432-.126.1543-.2627.2969-.4092.4307-.1475.1328-.3047.2344-.4727.3047ZM188.3287,102.1713c.0137.1113-.0176.1885-.0947.2305s-.1572.0557-.2412.042-.1611-.0488-.2314-.1055c-.0703-.0557-.084-.1328-.042-.2305.0703-.1963.1787-.2871.3262-.2725.1465.0137.2412.125.2832.3359ZM196.2877,107.5043c.0703.084.0947.1719.0732.2627-.0205.0918-.0625.1611-.126.21-.0625.0498-.1396.0732-.2305.0732-.0918,0-.165-.0488-.2207-.1465-.0566-.0977-.0732-.1895-.0527-.2734.0215-.084.0635-.1465.126-.1885.0635-.042.1328-.0635.21-.0635s.1504.042.2207.126ZM196.8131,107.1059c-.0566.0703-.123.1084-.2002.1152s-.1465-.0068-.21-.042c-.0625-.0352-.1084-.0869-.1357-.1572-.0283-.0703-.0283-.1475,0-.2314.042-.1113.0977-.2129.168-.3047.0693-.0908.1396-.1914.21-.3037.4619-.7285.8887-1.4736,1.2803-2.2373.3926-.7627.749-1.543,1.0713-2.3413.042-.0977.1055-.1641.1895-.1992.084-.0347.1602-.0386.2305-.0107.0703.0283.126.0811.168.1577.042.0771.042.1646,0,.2627-.6162,1.582-1.3652,3.0732-2.2471,4.4727-.0137.0283-.042.0703-.084.126-.042.0566-.084.1152-.126.1787-.042.0625-.0801.126-.1152.1885-.0352.0635-.0596.1025-.0732.1162-.0146.0137-.0352.0488-.0635.1045-.0283.0566-.0488.0918-.0625.1055Z" style="fill:#fff; stroke-width:0px;"/><path d="M202.1685,107.7778c.0557.1396.0273.2559-.084.3467-.1123.0908-.2314.1016-.3574.0312-.042-.0137-.084-.0557-.126-.126s-.084-.1436-.126-.2207c-.042-.0762-.0801-.1504-.1152-.2207-.0352-.0693-.0596-.126-.0732-.168-.126-.2793-.2207-.5635-.2842-.8506-.0625-.2861-.1084-.5771-.1357-.8711-.0703-.7559-.0771-1.5088-.0215-2.2578.0557-.748.126-1.501.21-2.2573,0-.042.0068-.1118.0215-.21.0137-.0977.0273-.2026.042-.3149.0137-.1118.0273-.2168.042-.3149.0137-.0977.0273-.168.042-.21.0273-.0977.0801-.1606.1572-.189.0771-.0278.1504-.0317.2207-.0107.0693.021.1289.0669.1787.1367.0488.0703.0654.1543.0518.252-.0703.3223-.1191.6372-.1465.9448-.0283.3081-.0566.6226-.084.9448-.0703.6025-.1191,1.2041-.1475,1.8066-.0283.6016-.0068,1.2041.0635,1.8057.0693.6025.252,1.1689.5459,1.7012.0137.0283.0381.0703.0732.126s.0527.0977.0527.126ZM212.4791,108.4467c-.21.127-.5498.2188-1.0186.2754-.4688.0566-.9697.0947-1.501.1162-.5322.0205-1.043.0273-1.5332.0205-.4902-.0068-.8613-.0176-1.1133-.0312-.4756-.0137-.9521-.0391-1.4277-.0732-.4756-.0361-.9453-.1172-1.4072-.2441-.2383-.0703-.4756-.1553-.7139-.2539s-.4551-.2324-.6504-.4023c-.2666-.2256-.4766-.5039-.6309-.8359-.1543-.3311-.2656-.666-.3359-1.0039-.126-.6729-.1641-1.3545-.1152-2.0479s.1084-1.376.1787-2.0469c.084-.7705.1748-1.5337.2725-2.2896.0986-.7563.2031-1.519.3154-2.2891.0703-.4199.1367-.8398.1992-1.2603.0635-.4199.1299-.8398.2002-1.2598v-.168c0-.2236.0518-.4375.1572-.6406.1045-.2026.2344-.3813.3887-.5356.1113-.1118.248-.1958.4092-.252.1611-.0557.3184-.084.4727-.084.0273,0,.0908.0107.1885.0317s.1611.0244.1895.0103c.1953-.0278.5459-.0381,1.0498-.0312.5039.0073,1.04.021,1.6064.042.5674.021,1.1055.0454,1.6172.0732.5107.0283.8643.0493,1.0605.063.042,0,.1289.0073.2627.021.1328.0142.2695.0283.4092.042.1396.0142.2764.0283.4092.042.1328.0142.2207.0283.2627.042.1396.0283.2764.0737.4092.1367.1338.063.2559.1436.3682.2417.1953.1958.332.4165.4092.6611.0771.2451.0908.4829.042.7144-.0488.231-.1543.4409-.3145.6299-.1611.189-.375.3184-.6406.3882-.1406.0283-.2871.0459-.4414.0527-.1543.0073-.2939-.0244-.4199-.0947l-.21-.105c-.168-.0137-.4971-.0347-.9873-.063-.4902-.0278-1.0078-.0522-1.5537-.0732s-1.0645-.042-1.5537-.063c-.4902-.021-.8193-.0317-.9873-.0317-.1123.6304-.2139,1.2637-.3047,1.9009-.0908.6372-.1787,1.2705-.2627,1.9004.1543.0142.459.0386.9141.0732.4551.0352.9414.0703,1.459.105.5186.0352,1.0049.0669,1.46.0947.4551.0283.7588.042.9131.042.084,0,.165-.0034.2422-.0107.0762-.0068.1572-.0029.2412.0107.3779.0703.6582.2383.8398.5039.1816.2661.2734.5498.2734.8506,0,.3013-.0918.584-.2734.8506-.1816.2656-.4619.4268-.8398.4824-.042.0146-.1152.0215-.2207.0215h-.9131c-.1406-.0137-.4238-.0352-.8506-.0635-.4277-.0273-.8818-.0557-1.3652-.084-.4834-.0273-.9385-.0586-1.3652-.0938s-.7109-.0596-.8506-.0742c-.0557.4482-.0977.9004-.126,1.3545-.0283.4551-.0283.9072,0,1.3545.0137.1123.0283.2246.042.3359.0137.1123.042.2246.084.3369.1123.0557.2275.0937.3467.1152.1191.0205.2344.0459.3467.0732.4199.0703.8438.1123,1.2705.126.4268.0146.8506.0215,1.2705.0215.4482,0,.8887-.0039,1.3232-.0107.4336-.0068.874-.0244,1.3223-.0527.126,0,.2529-.0137.3789-.042.126-.0273.252-.0557.3779-.084.1953-.042.3916-.0312.5879.0312.1953.0635.3701.1514.5244.2637.1396.085.2451.2012.3154.3496.0693.1484.126.2998.168.4551.0693.2539.0381.5254-.0947.8145s-.3184.4971-.5566.624ZM202.8609,108.5131c.0566.126.0498.2441-.0205.3564s-.1748.1543-.3154.126c-.1396-.0283-.2305-.1045-.2725-.2305s-.0146-.2451.084-.3574c.0693-.084.1641-.1152.2832-.0947.1191.0215.1992.0879.2412.2002ZM210.6734,96.6689c.0977.0278.1611.0806.1885.1572.0283.0771.0322.1543.0107.231-.0205.0771-.0625.1401-.126.189-.0625.0493-.1436.0601-.2412.0317-.4619-.1118-.9277-.1787-1.3965-.1997-.4697-.021-.9414-.0239-1.418-.0103h-.3564c-.1826,0-.3018.0073-.3574.021-.1543.0562-.2832.0352-.3887-.063-.1045-.0981-.1152-.2241-.0312-.3779.042-.0562.1055-.0981.1895-.126.084-.0283.1777-.0493.2832-.063.1055-.0142.2129-.021.3252-.021h.2734c.3633-.0142.7314-.0142,1.1025,0,.3711.0137.7383.042,1.1025.084.042,0,.1016.0068.1787.021.0762.0137.1602.0278.252.042.0908.0137.1748.0278.252.042.0762.0137.1289.0278.1572.042ZM212.0806,96.9209c.1533.1821.1855.3325.0938.4512-.0908.1191-.2344.144-.4297.0737-.0986-.042-.1514-.105-.1582-.189s.0176-.1646.0742-.2417c.0557-.0767.1221-.1328.1992-.168.0771-.0347.1504-.0103.2207.0737Z" style="fill:#fff; stroke-width:0px;"/><path d="M214.6842,99.2099c0,.0981-.0352.1714-.1055.2202-.0703.0493-.1436.0703-.2207.063-.0771-.0068-.1465-.0381-.21-.0942-.0625-.0562-.0938-.1333-.0938-.231.0273-.3643.0518-.7173.0732-1.0605.0205-.3433.0313-.6963.0313-1.0605,0-.3779-.0352-.7563-.1045-1.1343-.0703-.3779-.1191-.7559-.1475-1.1338-.0283-.5317.1055-1.022.3994-1.4702.0693-.1118.1504-.2236.2412-.3359.0908-.1118.1992-.2026.3252-.2729.1543-.0698.2842-.0488.3887.063.1055.1123.1152.2383.0312.3779-.0283.042-.084.0913-.168.147-.084.0562-.1777.1753-.2832.3569-.1045.1821-.1719.3154-.1992.3994-.0986.2798-.1299.5703-.0947.8711.0352.3013.0732.5918.1152.8716.0977.5742.1396,1.1445.126,1.7114-.0137.5674-.0488,1.1377-.1045,1.7119ZM214.6207,100.2177c.0283.126-.0107.2275-.1152.3047-.1055.0767-.2139.0942-.3252.0522-.1123-.042-.1826-.1226-.21-.2412-.0283-.1191.0068-.2207.1045-.3047.0977-.0698.2061-.0874.3252-.0527.1191.0352.1924.1157.2207.2417ZM224.1969,108.0717c-.2656.2656-.5947.3994-.9873.3994-1.0215-.0146-2.0439-.0186-3.0654-.0107-1.0225.0068-2.0352-.0391-3.0391-.1367-.1533-.0137-.2959-.0352-.4277-.0625-.1318-.0283-.2607-.0566-.3857-.085-.2773-.0693-.5273-.21-.75-.4199s-.375-.4473-.459-.7139c-.0703-.1953-.1123-.4023-.126-.6191s-.0068-.4307.0215-.6406c.0557-1.0361.084-2.0645.084-3.0869s.0137-2.0581.042-3.1079c.0137-.7842.0342-1.561.0625-2.3311.0283-.77.0215-1.54-.0205-2.3101,0-.084-.0107-.1606-.0312-.231-.0215-.0698-.0322-.1396-.0322-.21,0-.3359.1045-.6299.3135-.8823.0967-.1118.2148-.2061.3535-.2832.1396-.0767.2852-.1367.4385-.1787.1523-.042.3047-.0449.458-.0103.1533.0352.2988.0874.4375.1572.1533.0703.2812.1753.3857.3149.1045.1401.1914.2871.2607.4414.0273.0698.0518.189.0723.3569.0215.168.0352.3433.042.5249.0068.1821.0137.3569.0215.5249.0068.168.0098.2939.0098.3779,0,.21-.0029.5708-.0098,1.0815-.0078.5112-.0146,1.0923-.0215,1.7432s-.0176,1.3438-.0313,2.0791c-.0137.7349-.0273,1.4277-.041,2.0791-.0146.6504-.0283,1.2314-.042,1.7432-.0137.5107-.0283.8711-.042,1.0811.9229.0703,1.8428.1016,2.7607.0947.916-.0068,1.8369-.0107,2.7607-.0107.3086,0,.5742.084.7988.252.2236.168.3848.3672.4824.5986.0977.2305.126.4834.084.7559-.042.2734-.168.5146-.3779.7246ZM221.9498,105.2153c-.0703,0-.21.0039-.4199.0107-.21.0078-.4336.0107-.6719.0107h-1.1133c-.0703-.0137-.1963-.0283-.3779-.042s-.3008-.0488-.3564-.1055c-.1123-.0977-.1445-.2168-.0947-.3564.0488-.1396.1504-.2031.3047-.1895.1816.0146.3604.0322.5352.0527.1748.0215.3604.0244.5566.0107.0557,0,.168-.0039.3359-.0107s.3428-.0137.5244-.0205c.1826-.0068.3535-.0107.5146-.0107s.2764.0068.3467.0205c.0977.0146.168.0566.21.126.042.0703.0557.1406.042.21-.0137.0703-.0488.1367-.1045.2002-.0566.0625-.1338.0938-.2314.0938ZM223.1051,104.5649c.0977.042.1641.0977.1992.168s.042.1436.0215.2207c-.0215.0771-.0674.1396-.1367.1885-.0703.0498-.1543.0596-.252.0312-.1123-.0137-.1826-.0586-.21-.1357-.0283-.0771-.0313-.1582-.0107-.2422.0215-.084.0664-.1533.1367-.21.0693-.0557.1533-.0625.252-.0205Z" style="fill:#fff; stroke-width:0px;"/></g></g></svg>